<svg xmlns="http://www.w3.org/2000/svg" width="20" height="20" viewBox="0 0 20 20">
  <path id="Icon_awesome-phone" data-name="Icon awesome-phone" d="M19.273.961,15.21.023a.944.944,0,0,0-1.074.543L12.261,4.941a.935.935,0,0,0,.27,1.094L14.9,7.972a14.477,14.477,0,0,1-6.922,6.922L6.039,12.527a.936.936,0,0,0-1.094-.27L.57,14.132A.949.949,0,0,0,.023,15.21l.937,4.062A.937.937,0,0,0,1.875,20,18.123,18.123,0,0,0,20,1.875.936.936,0,0,0,19.273.961Z" transform="translate(0.001 0.001)" fill="#221f20"/>
</svg>
