<svg xmlns="http://www.w3.org/2000/svg" xmlns:xlink="http://www.w3.org/1999/xlink" width="22" height="22" viewBox="0 0 22 22">
  <defs>
    <clipPath id="clip-path">
      <rect id="Прямоугольник_1138" data-name="Прямоугольник 1138" width="22" height="22" transform="translate(1551 103)" fill="#c5934f" stroke="#707070" stroke-width="1"/>
    </clipPath>
  </defs>
  <g id="bag" transform="translate(-1551 -103)" clip-path="url(#clip-path)">
    <path id="Исключение_2" data-name="Исключение 2" d="M20352.813,4542h-12.373a3.44,3.44,0,0,1-3.437-3.433v-11.688h4.123V4525.5a5.5,5.5,0,1,1,11,0v1.375h4.129v11.688A3.44,3.44,0,0,1,20352.813,4542Zm-5.986-12.833a3.468,3.468,0,0,0-3.465,3.464c0,2.562,3.432,6.394,3.465,6.432.033-.038,3.463-3.869,3.463-6.432A3.467,3.467,0,0,0,20346.826,4529.165Zm-.2-6.417a2.756,2.756,0,0,0-2.754,2.753v1.375h5.5V4525.5A2.754,2.754,0,0,0,20346.627,4522.748Zm.2,11.122a1.239,1.239,0,1,1,1.236-1.241A1.24,1.24,0,0,1,20346.826,4533.87Z" transform="translate(-18784.625 -4417)" fill="#c5934f"/>
  </g>
</svg>
