<svg xmlns="http://www.w3.org/2000/svg" xmlns:xlink="http://www.w3.org/1999/xlink" width="60" height="60" viewBox="0 0 60 60">
  <defs>
    <clipPath id="clip-path">
      <rect id="Прямоугольник_1166" data-name="Прямоугольник 1166" width="60" height="60" transform="translate(1095 268)" fill="#fff" stroke="#707070" stroke-width="1"/>
    </clipPath>
  </defs>
  <g id="coockes" transform="translate(-1095 -268)" clip-path="url(#clip-path)">
    <g id="cookies_" data-name="cookies " transform="translate(1025.697 -194.786)">
      <g id="Сгруппировать_999" data-name="Сгруппировать 999" transform="translate(69.303 466.786)">
        <g id="Сгруппировать_959" data-name="Сгруппировать 959" transform="translate(0 9.111)">
          <g id="Сгруппировать_940" data-name="Сгруппировать 940" transform="translate(0 0)">
            <path id="Контур_1493" data-name="Контур 1493" d="M105.468,509.6c.308,8.829-7.11,16.254-16.567,16.584s-17.375-6.56-17.682-15.39,7.11-16.254,16.568-16.584S105.16,500.775,105.468,509.6Z" transform="translate(-71.209 -494.203)" fill="#c5934f"/>
          </g>
          <g id="Сгруппировать_941" data-name="Сгруппировать 941" transform="translate(11.636 1.899)">
            <path id="Контур_1495" data-name="Контур 1495" d="M117.458,499.519a9.758,9.758,0,0,0-.147,1.848,19.32,19.32,0,0,0,.324,2.992,5.454,5.454,0,0,1-.088,2.85,8.037,8.037,0,0,1-2.048,2.649c-.822.818-1.683,1.6-2.487,2.432a12.223,12.223,0,0,0-2.146,2.812,15.23,15.23,0,0,0-1.125,3.291c-.138.553-.268,1.108-.416,1.659-.135.5-.3.991-.459,1.487-.291.927-.55,1.864-.891,2.774A6.973,6.973,0,0,1,104.6,528.5a6.884,6.884,0,0,1-.811.3,18.179,18.179,0,0,0,6.055.807c9.457-.329,16.876-7.754,16.567-16.584A15.824,15.824,0,0,0,117.458,499.519Z" transform="translate(-103.788 -499.519)" fill="#9d7743"/>
          </g>
          <g id="Сгруппировать_942" data-name="Сгруппировать 942" transform="translate(0 8.426)">
            <path id="Контур_1496" data-name="Контур 1496" d="M94.738,538.169c-6.342,1.746-11.064,1.085-16.9-3.327-4.744-3.584-4.846-11.616-4.825-12.836.022-1.337.136-2.671.261-4,.007-.071.013-.141.019-.211a15.129,15.129,0,0,0-2.069,8.169c.308,8.83,8.224,15.72,17.682,15.39a17.6,17.6,0,0,0,13.005-6.272A29.566,29.566,0,0,1,94.738,538.169Z" transform="translate(-71.209 -517.794)" fill="#9d7743"/>
          </g>
          <g id="Сгруппировать_943" data-name="Сгруппировать 943" transform="translate(3.667 10.914)">
            <path id="Контур_1497" data-name="Контур 1497" d="M84.414,525.6c.5.675.126,1.319-.515,1.8s-1.3.606-1.806-.07-.936-1.885-.3-2.362A2.311,2.311,0,0,1,84.414,525.6Z" transform="translate(-81.477 -524.761)" fill="#433224"/>
          </g>
          <g id="Сгруппировать_944" data-name="Сгруппировать 944" transform="translate(14.264 25.247)">
            <path id="Контур_1499" data-name="Контур 1499" d="M113.372,564.908c.789.134.953.825.825,1.573s-.5,1.273-1.287,1.138-1.882-.681-1.755-1.429S112.583,564.773,113.372,564.908Z" transform="translate(-111.146 -564.89)" fill="#433224"/>
          </g>
          <g id="Сгруппировать_945" data-name="Сгруппировать 945" transform="translate(28.479 10.529)">
            <path id="Контур_1501" data-name="Контур 1501" d="M153.518,526.142c-.253.609-.837.613-1.414.372s-.929-.634-.675-1.243.893-1.384,1.471-1.144A1.809,1.809,0,0,1,153.518,526.142Z" transform="translate(-151.202 -523.94)" fill="#705b57"/>
            <path id="Контур_1502" data-name="Контур 1502" d="M152.536,526.548a1.8,1.8,0,0,1-.745-.158c-.74-.309-1.008-.817-.753-1.429.209-.5.742-1.255,1.353-1.277a.713.713,0,0,1,.3.055,1.932,1.932,0,0,1,.7,2.2A.917.917,0,0,1,152.536,526.548Zm-.134-2.579c-.408.014-.879.571-1.1,1.1-.071.17-.286.687.6,1.056a1.529,1.529,0,0,0,.625.137.633.633,0,0,0,.6-.432,1.691,1.691,0,0,0-.542-1.828A.434.434,0,0,0,152.4,523.969Z" transform="translate(-150.945 -523.683)" fill="#583e37"/>
          </g>
          <g id="Сгруппировать_947" data-name="Сгруппировать 947" transform="translate(6.163 22.064)">
            <path id="Контур_1505" data-name="Контур 1505" d="M90.093,556.547c.24.4,0,.733-.381.961s-.75.262-.99-.137-.413-1.089-.035-1.317A1.279,1.279,0,0,1,90.093,556.547Z" transform="translate(-88.465 -555.979)" fill="#433224"/>
          </g>
          <g id="Сгруппировать_948" data-name="Сгруппировать 948" transform="translate(30.705 15.481)">
            <path id="Контур_1507" data-name="Контур 1507" d="M158.884,539.011c-.084.418-.453.494-.849.415s-.669-.284-.585-.7.391-.991.787-.912A1.17,1.17,0,0,1,158.884,539.011Z" transform="translate(-157.342 -537.713)" fill="#705b57"/>
            <path id="Контур_1508" data-name="Контур 1508" d="M158.167,539.38a1.385,1.385,0,0,1-.316-.029.956.956,0,0,1-.521-.251.6.6,0,0,1-.136-.558c.075-.377.355-.978.787-.993a.441.441,0,0,1,.108.009,1.249,1.249,0,0,1,.72,1.307A.617.617,0,0,1,158.167,539.38Zm-.18-1.648c-.276.01-.533.446-.613.844a.421.421,0,0,0,.09.4.79.79,0,0,0,.424.2,1.207,1.207,0,0,0,.274.025.432.432,0,0,0,.467-.368c.072-.362-.23-1.021-.576-1.09A.277.277,0,0,0,157.986,537.732Z" transform="translate(-157.176 -537.548)" fill="#583e37"/>
          </g>
          <g id="Сгруппировать_949" data-name="Сгруппировать 949" transform="translate(15.477 2.271)">
            <path id="Контур_1509" data-name="Контур 1509" d="M117.053,502.172c.089.726-.473,1.049-1.161,1.134s-1.243-.1-1.332-.829.1-1.825.792-1.909S116.964,501.447,117.053,502.172Z" transform="translate(-114.54 -500.563)" fill="#433224"/>
          </g>
          <g id="Сгруппировать_957" data-name="Сгруппировать 957" transform="translate(9.049 9.222)">
            <g id="Сгруппировать_950" data-name="Сгруппировать 950" transform="translate(0 6.627)">
              <path id="Контур_1511" data-name="Контур 1511" d="M99.459,539.283a1.593,1.593,0,1,1-2.209-.436A1.592,1.592,0,0,1,99.459,539.283Z" transform="translate(-96.544 -538.577)" fill="#ea2838"/>
            </g>
            <g id="Сгруппировать_951" data-name="Сгруппировать 951" transform="translate(0.742 3.933)">
              <path id="Контур_1512" data-name="Контур 1512" d="M101.335,531.69a1.483,1.483,0,1,1-2.058-.406A1.483,1.483,0,0,1,101.335,531.69Z" transform="translate(-98.621 -531.033)" fill="#221f20"/>
            </g>
            <g id="Сгруппировать_952" data-name="Сгруппировать 952" transform="translate(12.149 0.646)">
              <path id="Контур_1513" data-name="Контур 1513" d="M133.367,522.392a1.592,1.592,0,1,1-2.245-.185A1.592,1.592,0,0,1,133.367,522.392Z" transform="translate(-130.56 -521.83)" fill="#ea2838"/>
            </g>
            <g id="Сгруппировать_953" data-name="Сгруппировать 953" transform="translate(9.767)">
              <path id="Контур_1514" data-name="Контур 1514" d="M126.5,520.545a1.483,1.483,0,1,1-2.09-.171A1.483,1.483,0,0,1,126.5,520.545Z" transform="translate(-123.89 -520.022)" fill="#221f20"/>
            </g>
            <g id="Сгруппировать_954" data-name="Сгруппировать 954" transform="translate(7.195 6.011)">
              <path id="Контур_1515" data-name="Контур 1515" d="M117.812,538.627a2.364,2.364,0,0,1-.95-.166.288.288,0,0,1,.232-.528,1.5,1.5,0,0,0,2.027-.885.288.288,0,1,1,.548.18,2.233,2.233,0,0,1-1.042,1.2A1.949,1.949,0,0,1,117.812,538.627Z" transform="translate(-116.69 -536.85)" fill="#221f20"/>
            </g>
            <g id="Сгруппировать_955" data-name="Сгруппировать 955" transform="translate(9.231 5.122)">
              <path id="Контур_1516" data-name="Контур 1516" d="M124.142,536.454a.29.29,0,0,1-.123-.024,2.427,2.427,0,0,1-1.627-1.745.288.288,0,0,1,.572-.073c.006.039.135.8,1.282,1.288a.289.289,0,0,1-.1.554Z" transform="translate(-122.39 -534.361)" fill="#221f20"/>
            </g>
            <g id="Сгруппировать_956" data-name="Сгруппировать 956" transform="translate(6.613 6.018)">
              <path id="Контур_1517" data-name="Контур 1517" d="M115.359,539.541a.288.288,0,0,1-.227-.478,1.9,1.9,0,0,0,.121-1.813.288.288,0,1,1,.548-.18,2.429,2.429,0,0,1-.237,2.374A.29.29,0,0,1,115.359,539.541Z" transform="translate(-115.06 -536.872)" fill="#221f20"/>
            </g>
          </g>
        </g>
        <g id="Сгруппировать_976" data-name="Сгруппировать 976" transform="translate(26.277 0)">
          <g id="Сгруппировать_960" data-name="Сгруппировать 960" transform="translate(0)">
            <path id="Контур_1519" data-name="Контур 1519" d="M173.8,497.044c-6.086,6.4-16.581,6.311-23.441-.209s-7.486-17-1.4-23.4,16.581-6.31,23.441.21S179.89,490.641,173.8,497.044Z" transform="translate(-144.779 -468.693)" fill="#e4ae66"/>
          </g>
          <g id="Сгруппировать_961" data-name="Сгруппировать 961" transform="translate(0 0.751)">
            <path id="Контур_1521" data-name="Контур 1521" d="M172.76,498.277A17.6,17.6,0,0,0,170,492.519a12.021,12.021,0,0,0-4.3-3.455,25.4,25.4,0,0,0-5.341-2.057c-2.153-.508-9.644-.733-10.658-.953a4.079,4.079,0,0,1-2.048-.957,2.487,2.487,0,0,1-.668-2.068,22.9,22.9,0,0,1,1.637-4.051,19.142,19.142,0,0,1,6.729-8.181,15.087,15.087,0,0,0-6.387,3.991c-6.087,6.4-5.46,16.88,1.4,23.4,6.569,6.243,16.469,6.593,22.642.989Q172.891,498.723,172.76,498.277Z" transform="translate(-144.779 -470.796)" fill="#c5934f"/>
          </g>
          <g id="Сгруппировать_962" data-name="Сгруппировать 962" transform="translate(3.485 10.205)">
            <path id="Контур_1522" data-name="Контур 1522" d="M157.482,499.643c-.134.852-.875,1.038-1.683.912s-1.378-.518-1.245-1.37.706-2.037,1.515-1.911S157.615,498.791,157.482,499.643Z" transform="translate(-154.535 -497.265)" fill="#433224"/>
          </g>
          <g id="Сгруппировать_964" data-name="Сгруппировать 964" transform="translate(26.236 24.422)">
            <path id="Контур_1526" data-name="Контур 1526" d="M219.658,539.415c-.627.252-1.049-.173-1.287-.768s-.2-1.134.424-1.385,1.654-.34,1.892.255A1.854,1.854,0,0,1,219.658,539.415Z" transform="translate(-218.235 -537.069)" fill="#433224"/>
          </g>
          <g id="Сгруппировать_966" data-name="Сгруппировать 966" transform="translate(14.189 3.537)">
            <path id="Контур_1530" data-name="Контур 1530" d="M186.119,479.993c-.12.462-.538.524-.977.41s-.73-.36-.611-.822.5-1.084.939-.97A1.311,1.311,0,0,1,186.119,479.993Z" transform="translate(-184.505 -478.597)" fill="#433224"/>
          </g>
          <g id="Сгруппировать_967" data-name="Сгруппировать 967" transform="translate(29.233 14.144)">
            <path id="Контур_1532" data-name="Контур 1532" d="M227.714,509.816c-.365.239-.687.024-.913-.322s-.273-.693.093-.932,1.005-.425,1.231-.078A1.2,1.2,0,0,1,227.714,509.816Z" transform="translate(-226.625 -508.292)" fill="#433224"/>
          </g>
          <g id="Сгруппировать_968" data-name="Сгруппировать 968" transform="translate(25.31 7.925)">
            <path id="Контур_1534" data-name="Контур 1534" d="M217.894,493.422c-.467.585-1.107.408-1.662-.036s-.816-.983-.35-1.568,1.409-1.233,1.965-.79A2.055,2.055,0,0,1,217.894,493.422Z" transform="translate(-215.641 -490.881)" fill="#433224"/>
          </g>
          <g id="Сгруппировать_974" data-name="Сгруппировать 974" transform="translate(10.277 8.085)">
            <g id="Сгруппировать_969" data-name="Сгруппировать 969" transform="translate(0 1.403)">
              <path id="Контур_1536" data-name="Контур 1536" d="M177.439,497.62a1.964,1.964,0,1,1-1.525-2.322A1.964,1.964,0,0,1,177.439,497.62Z" transform="translate(-174.294 -495.999)" fill="#ea2838"/>
            </g>
            <g id="Сгруппировать_970" data-name="Сгруппировать 970" transform="translate(2.554)">
              <path id="Контур_1537" data-name="Контур 1537" d="M183.638,493.112a1.483,1.483,0,1,1-1.151-1.752A1.482,1.482,0,0,1,183.638,493.112Z" transform="translate(-180.703 -491.33)" fill="#221f20"/>
            </g>
            <g id="Сгруппировать_971" data-name="Сгруппировать 971" transform="translate(12.779 5.885)">
              <path id="Контур_1538" data-name="Контур 1538" d="M212.99,509.808a1.833,1.833,0,1,1-1.659-1.993A1.834,1.834,0,0,1,212.99,509.808Z" transform="translate(-209.331 -507.807)" fill="#ea2838"/>
            </g>
            <g id="Сгруппировать_972" data-name="Сгруппировать 972" transform="translate(11.683 3.687)">
              <path id="Контур_1539" data-name="Контур 1539" d="M209.221,503.271a1.483,1.483,0,1,1-1.341-1.612A1.483,1.483,0,0,1,209.221,503.271Z" transform="translate(-206.261 -501.653)" fill="#221f20"/>
            </g>
            <g id="Сгруппировать_973" data-name="Сгруппировать 973" transform="translate(6.045 6.308)">
              <path id="Контур_1540" data-name="Контур 1540" d="M192.487,510.72a2.019,2.019,0,0,1-.728-.1,2.232,2.232,0,0,1-1.263-1.233.288.288,0,0,1,.539-.2,1.5,1.5,0,0,0,2.052.828.288.288,0,1,1,.255.517A2.286,2.286,0,0,1,192.487,510.72Z" transform="translate(-190.478 -508.992)" fill="#221f20"/>
            </g>
          </g>
        </g>
        <g id="Сгруппировать_998" data-name="Сгруппировать 998" transform="translate(18.522 20.003)">
          <g id="Сгруппировать_977" data-name="Сгруппировать 977" transform="translate(0 0)">
            <path id="Контур_1542" data-name="Контур 1542" d="M159.675,535.4c.308,8.83-7.109,16.254-16.567,16.584s-17.374-6.561-17.682-15.39,7.11-16.255,16.568-16.585S159.367,526.572,159.675,535.4Z" transform="translate(-125.416 -520)" fill="#e4ae66"/>
          </g>
          <g id="Сгруппировать_978" data-name="Сгруппировать 978" transform="translate(1.237 5.324)">
            <path id="Контур_1543" data-name="Контур 1543" d="M157.592,534.907c.882,1.97,3.154,4.548,1.726,5.495-.9.593-2.452-.433-3.365,2.253l.434.727a8.062,8.062,0,0,0,2.977,1.874c.919.373-.689,4.581-1.228,5.758-1.455,3.182-4.3,4.606-5.654,5.692-.226.182-.4-.019-.671.109-.063-.782.364-2.131-.965-2.91a5.034,5.034,0,0,0-2.783,3.723c-.2,1.326-3.544,1.58-4.166.283-.511-1.065.049-1.574-2.329-2.968L140.186,557a3.056,3.056,0,0,0,.05,1.457,15.362,15.362,0,0,1-6.065-2.761.31.31,0,0,0-.026-.016,32.219,32.219,0,0,1-5.265-4.044,17.126,17.126,0,0,0,16.454,9.937c9.458-.329,16.875-7.754,16.567-16.584A15.3,15.3,0,0,0,157.592,534.907Z" transform="translate(-128.879 -534.907)" fill="#c5934f"/>
          </g>
          <g id="Сгруппировать_979" data-name="Сгруппировать 979" transform="translate(2.518 16.65)">
            <path id="Контур_1544" data-name="Контур 1544" d="M136.054,569.486c-.148,1.038-1.047,1.277-2.032,1.136s-1.684-.608-1.535-1.646.828-2.49,1.812-2.349S136.2,568.448,136.054,569.486Z" transform="translate(-132.466 -566.617)" fill="#433224"/>
          </g>
          <g id="Сгруппировать_980" data-name="Сгруппировать 980" transform="translate(28.161 11.433)">
            <path id="Контур_1546" data-name="Контур 1546" d="M206.547,552.027c.81.138.978.846.848,1.615s-.511,1.307-1.322,1.168-1.933-.7-1.8-1.468S205.737,551.89,206.547,552.027Z" transform="translate(-204.261 -552.009)" fill="#433224"/>
          </g>
          <g id="Сгруппировать_981" data-name="Сгруппировать 981" transform="translate(26.24 17.829)">
            <path id="Контур_1548" data-name="Контур 1548" d="M201.113,571.883c-.184.636-.767.706-1.37.531s-1-.529-.814-1.165.737-1.483,1.34-1.307A1.817,1.817,0,0,1,201.113,571.883Z" transform="translate(-198.883 -569.918)" fill="#433224"/>
          </g>
          <g id="Сгруппировать_982" data-name="Сгруппировать 982" transform="translate(11.388 2.983)">
            <path id="Контур_1550" data-name="Контур 1550" d="M160.582,530.454c.115.947-.617,1.37-1.516,1.48s-1.624-.135-1.739-1.083.136-2.383,1.035-2.493S160.466,529.507,160.582,530.454Z" transform="translate(-157.3 -528.352)" fill="#433224"/>
          </g>
          <g id="Сгруппировать_983" data-name="Сгруппировать 983" transform="translate(10.667 24.978)">
            <path id="Контур_1552" data-name="Контур 1552" d="M159.175,591.042c.666.9.167,1.749-.683,2.382s-1.728.8-2.394-.092-1.242-2.5-.392-3.132S158.509,590.147,159.175,591.042Z" transform="translate(-155.281 -589.933)" fill="#433224"/>
          </g>
          <g id="Сгруппировать_984" data-name="Сгруппировать 984" transform="translate(21.708 24.41)">
            <path id="Контур_1554" data-name="Контур 1554" d="M189.283,591.271c-.36.864-1.19.87-2.01.529s-1.32-.9-.96-1.766,1.27-1.967,2.09-1.626S189.643,590.406,189.283,591.271Z" transform="translate(-186.194 -588.344)" fill="#433224"/>
          </g>
          <g id="Сгруппировать_985" data-name="Сгруппировать 985" transform="translate(24.424 5.011)">
            <path id="Контур_1556" data-name="Контур 1556" d="M195.54,535.478c-.1.5-.543.593-1.019.5s-.8-.341-.7-.842.469-1.189.945-1.094A1.4,1.4,0,0,1,195.54,535.478Z" transform="translate(-193.8 -534.031)" fill="#433224"/>
          </g>
          <g id="Сгруппировать_997" data-name="Сгруппировать 997" transform="translate(8.925 9.226)">
            <g id="Сгруппировать_987" data-name="Сгруппировать 987" transform="translate(-0.697 6.627)">
              <path id="Контур_1559" data-name="Контур 1559" d="M153.958,565.247a1.941,1.941,0,1,1-2.694-.531A1.942,1.942,0,0,1,153.958,565.247Z" transform="translate(-150.405 -564.387)" fill="#ea2838"/>
            </g>
            <g id="Сгруппировать_988" data-name="Сгруппировать 988" transform="translate(0.742 3.933)">
              <path id="Контур_1560" data-name="Контур 1560" d="M155.2,557.5a1.483,1.483,0,1,1-2.057-.405A1.482,1.482,0,0,1,155.2,557.5Z" transform="translate(-152.481 -556.843)" fill="#221f20"/>
            </g>
            <g id="Сгруппировать_989" data-name="Сгруппировать 989" transform="translate(12.149 0.646)">
              <path id="Контур_1561" data-name="Контур 1561" d="M187.777,548.313a1.9,1.9,0,1,1-2.684-.221A1.9,1.9,0,0,1,187.777,548.313Z" transform="translate(-184.42 -548.264)" fill="#ea2838"/>
            </g>
            <g id="Сгруппировать_990" data-name="Сгруппировать 990" transform="translate(9.767)">
              <path id="Контур_1562" data-name="Контур 1562" d="M180.364,546.356a1.483,1.483,0,1,1-2.09-.172A1.483,1.483,0,0,1,180.364,546.356Z" transform="translate(-177.75 -545.832)" fill="#221f20"/>
            </g>
            <g id="Сгруппировать_992" data-name="Сгруппировать 992" transform="translate(6.058 6.036)">
              <g id="Сгруппировать_991" data-name="Сгруппировать 991" transform="translate(0 0)">
                <g id="Контур_1563" data-name="Контур 1563" transform="translate(-167.697 -560.376)" fill="#ea2838">
                  <path d="M 171.2854309082031 566.4113159179688 C 170.4262390136719 566.4113159179688 169.5855255126953 566.0781860351562 168.9181518554688 565.47314453125 C 168.3341064453125 564.9437255859375 167.9622344970703 564.25927734375 167.9476623535156 563.6868896484375 C 167.9429779052734 563.5020141601562 168.0286407470703 563.3096923828125 168.1888275146484 563.1453857421875 C 168.3869476318359 562.9421997070312 168.6679382324219 562.8159790039062 168.9221343994141 562.8159790039062 C 168.9361267089844 562.8159790039062 168.9500274658203 562.8163452148438 168.9639434814453 562.817138671875 C 169.0206298828125 562.8203125 169.0911102294922 562.8270263671875 169.1727142333984 562.8348388671875 C 169.3554382324219 562.8522338867188 169.5828399658203 562.8739013671875 169.83740234375 562.8739013671875 C 171.0811309814453 562.8739013671875 171.9330291748047 562.3160400390625 172.3694152832031 561.2157592773438 C 172.5004577636719 560.884765625 172.9081573486328 560.6256103515625 173.2976226806641 560.6256103515625 C 173.4125061035156 560.6256103515625 173.5180816650391 560.6478271484375 173.6114349365234 560.691650390625 C 174.1850891113281 560.9610595703125 174.5893096923828 561.7885131835938 174.6412048339844 562.799560546875 C 174.6939239501953 563.8270263671875 174.3526000976562 565.1641235351562 173.2365417480469 565.8355712890625 C 172.6010589599609 566.2175903320312 171.9445953369141 566.4113159179688 171.2854309082031 566.4113159179688 Z" stroke="none"/>
                  <path d="M 173.2976226806641 560.8756103515625 C 173.0083312988281 560.8756103515625 172.6962280273438 561.0693969726562 172.601806640625 561.3079223632812 C 172.1238708496094 562.512939453125 171.1938018798828 563.1239013671875 169.83740234375 563.1239013671875 C 169.5709381103516 563.1239013671875 169.3369598388672 563.1016235351562 169.1489715576172 563.0836791992188 C 169.0699310302734 563.076171875 169.0016784667969 563.0696411132812 168.9502716064453 563.0667724609375 C 168.9409027099609 563.0662231445312 168.9315490722656 563.0659790039062 168.9221801757812 563.0659790039062 C 168.7358245849609 563.0659790039062 168.5182037353516 563.1657104492188 168.3677825927734 563.3200073242188 C 168.3025054931641 563.386962890625 168.1935882568359 563.5228271484375 168.1975708007812 563.6804809570312 C 168.2230224609375 564.6795043945312 169.5308380126953 566.1613159179688 171.2854309082031 566.1613159179688 C 171.8985595703125 566.1613159179688 172.5116882324219 565.9796752929688 173.1076507568359 565.621337890625 C 174.1289978027344 565.0068969726562 174.4405364990234 563.7674560546875 174.3915405273438 562.8123779296875 C 174.3450317382812 561.9064331054688 173.9888153076172 561.1450805664062 173.5052032470703 560.91796875 C 173.4453430175781 560.8898315429688 173.3755035400391 560.8756103515625 173.2976226806641 560.8756103515625 M 173.2976226806641 560.3756103515625 C 173.4434967041016 560.3756103515625 173.5868072509766 560.4039306640625 173.7176666259766 560.46533203125 C 175.2010040283203 561.1619873046875 175.4953460693359 564.7683715820312 173.3654174804688 566.0498046875 C 170.4464263916016 567.8045654296875 167.7410736083984 565.3949584960938 167.6977386474609 563.6932373046875 C 167.6821441650391 563.075927734375 168.361083984375 562.533447265625 168.9777526855469 562.5675048828125 C 169.5960388183594 562.6026611328125 171.3970642089844 562.9893188476562 172.1370239257812 561.1235961914062 C 172.3119964599609 560.681640625 172.8181915283203 560.3756103515625 173.2976226806641 560.3756103515625 Z" stroke="none" fill="#221f20"/>
                </g>
              </g>
            </g>
          </g>
        </g>
      </g>
    </g>
  </g>
</svg>
