<svg xmlns="http://www.w3.org/2000/svg" xmlns:xlink="http://www.w3.org/1999/xlink" width="40" height="40" viewBox="0 0 40 40">
  <defs>
    <clipPath id="clip-path">
      <rect id="Прямоугольник_1011" data-name="Прямоугольник 1011" width="40" height="40" transform="translate(15 3)" fill="#c5934f" stroke="#707070" stroke-width="1"/>
    </clipPath>
  </defs>
  <g id="opt" transform="translate(-15 -3)" clip-path="url(#clip-path)">
    <g id="Сгруппировать_681" data-name="Сгруппировать 681" transform="translate(20 12.5)">
      <path id="Контур_1693" data-name="Контур 1693" d="M29.379,98.03,20.447,89.1a.65.65,0,0,0-.918,0l-2.411,2.411a5.2,5.2,0,0,1-7.36-.013,2.919,2.919,0,0,1,.013-4.119l3.985-3.985.05-.049H.974A.974.974,0,0,0,0,84.316v9.741a.974.974,0,0,0,.974.974H2.961l9.223,9.223h0l.906.906a2.07,2.07,0,0,0,2.927,0h0a2.07,2.07,0,0,0,0-2.925l1.836,1.836a2.07,2.07,0,0,0,2.927-2.927l1.377,1.377a2.07,2.07,0,1,0,2.927-2.927l1.378,1.378a2.07,2.07,0,1,0,2.927-2.927Z" transform="translate(0 -83.342)" fill="#c5934f"/>
      <path id="Контур_1694" data-name="Контур 1694" d="M182.684,84.025a.683.683,0,0,0-.683-.683H171.686a3.414,3.414,0,0,0-2.414,1L164.5,88.848a.683.683,0,0,0,0,.966,2.276,2.276,0,0,0,3.218,0l3.672-3.4a2.8,2.8,0,0,1,3.29,0l5.778,5.778h0l.218-.654H182a.683.683,0,0,0,.683-.683Z" transform="translate(-152.685 -83.342)" fill="#c5934f"/>
    </g>
  </g>
</svg>
