<svg xmlns="http://www.w3.org/2000/svg" xmlns:xlink="http://www.w3.org/1999/xlink" width="15" height="22" viewBox="0 0 15 22">
  <defs>
    <clipPath id="clip-path">
      <rect id="Прямоугольник_1172" data-name="Прямоугольник 1172" width="15" height="22" fill="#8f8e8e"/>
    </clipPath>
  </defs>
  <g id="Icon_material-delete" data-name="Icon material-delete" transform="translate(0 0)">
    <g id="Сгруппировать_1026" data-name="Сгруппировать 1026" transform="translate(0 0)" clip-path="url(#clip-path)">
      <path id="Контур_1852" data-name="Контур 1852" d="M0,19.612a2.493,2.493,0,0,0,2.5,2.468h10A2.493,2.493,0,0,0,15,19.612V6.388H0ZM1.5,7.869h12V19.607a1,1,0,0,1-1,.992h-10A1,1,0,0,1,1.5,19.612Z" transform="translate(0 -0.081)" fill="#8f8e8e"/>
      <path id="Контур_1853" data-name="Контур 1853" d="M11.195,2.984a3.78,3.78,0,0,0-7.391,0H0V4.465H15V2.984Zm-5.83,0a2.267,2.267,0,0,1,4.269,0Z" transform="translate(0 0)" fill="#8f8e8e"/>
    </g>
  </g>
</svg>
