<svg xmlns="http://www.w3.org/2000/svg" xmlns:xlink="http://www.w3.org/1999/xlink" width="40" height="40" viewBox="0 0 40 40">
  <defs>
    <clipPath id="clip-path">
      <rect id="Прямоугольник_1011" data-name="Прямоугольник 1011" width="40" height="40" transform="translate(20 8)" fill="#c5934f" stroke="#707070" stroke-width="1"/>
    </clipPath>
  </defs>
  <g id="Группа_масок_15" data-name="Группа масок 15" transform="translate(-20 -8)" clip-path="url(#clip-path)">
    <g id="Сгруппировать_681" data-name="Сгруппировать 681" transform="translate(20 -70.342)">
      <path id="Контур_1693" data-name="Контур 1693" d="M39.172,102.926,27.263,91.017a.867.867,0,0,0-1.224,0l-3.214,3.214a6.935,6.935,0,0,1-9.813-.018,3.893,3.893,0,0,1,.017-5.493l5.314-5.314.067-.065H1.3a1.3,1.3,0,0,0-1.3,1.3V97.628a1.3,1.3,0,0,0,1.3,1.3h2.65l12.3,12.3h0l1.208,1.208a2.76,2.76,0,0,0,3.9,0h0a2.76,2.76,0,0,0,0-3.9l2.449,2.449a2.76,2.76,0,0,0,3.9-3.9l1.837,1.837a2.76,2.76,0,1,0,3.9-3.9l1.837,1.837a2.76,2.76,0,1,0,3.9-3.9Z" transform="translate(0 1)" fill="#c5934f"/>
      <path id="Контур_1694" data-name="Контур 1694" d="M188.813,84.252a.91.91,0,0,0-.91-.91H174.149a4.552,4.552,0,0,0-3.218,1.333l-6.367,6.009a.91.91,0,0,0,0,1.287,3.034,3.034,0,0,0,4.291,0l4.9-4.537a3.739,3.739,0,0,1,4.387,0l7.7,7.7h0l.291-.872H187.9a.91.91,0,0,0,.91-.91Z" transform="translate(-148.814 1)" fill="#c5934f"/>
    </g>
  </g>
</svg>
