<svg xmlns="http://www.w3.org/2000/svg" xmlns:xlink="http://www.w3.org/1999/xlink" width="40" height="40" viewBox="0 0 40 40">
  <defs>
    <clipPath id="clip-path">
      <rect id="Прямоугольник_1016" data-name="Прямоугольник 1016" width="40" height="40" transform="translate(21 20)" fill="#c5934f" stroke="#707070" stroke-width="1"/>
    </clipPath>
    <clipPath id="clip-path-2">
      <rect id="Прямоугольник_1025" data-name="Прямоугольник 1025" width="40" height="31.339" transform="translate(0 0)" fill="#c5934f"/>
    </clipPath>
  </defs>
  <g id="Группа_масок_17" data-name="Группа масок 17" transform="translate(-21 -20)" clip-path="url(#clip-path)">
    <g id="Сгруппировать_701" data-name="Сгруппировать 701" transform="translate(21 25.33)">
      <g id="Сгруппировать_700" data-name="Сгруппировать 700" clip-path="url(#clip-path-2)">
        <path id="Контур_1706" data-name="Контур 1706" d="M14.3,28.1a3.234,3.234,0,1,1-3.234-3.234A3.234,3.234,0,0,1,14.3,28.1" fill="#c5934f"/>
        <path id="Контур_1707" data-name="Контур 1707" d="M33.181,28.1a3.234,3.234,0,1,1-3.234-3.234A3.234,3.234,0,0,1,33.181,28.1" fill="#c5934f"/>
        <path id="Контур_1708" data-name="Контур 1708" d="M40,17.513a2.756,2.756,0,0,0-.807-1.949L32.716,9.087a2.756,2.756,0,0,0-1.949-.807H24.356V2.691A2.691,2.691,0,0,0,21.665,0H2.691A2.691,2.691,0,0,0,0,2.691v25.83H4.8c-.009-.138-.021-.275-.021-.416a6.279,6.279,0,0,1,12.558,0c0,.141-.012.278-.021.416h6.368c-.009-.138-.021-.275-.021-.416a6.279,6.279,0,0,1,12.558,0c0,.141-.012.278-.021.416H40Z" fill="#c5934f"/>
      </g>
    </g>
  </g>
</svg>
