<svg xmlns="http://www.w3.org/2000/svg" width="24" height="34.536" viewBox="0 0 24 34.536">
  <g id="Сгруппировать_790" data-name="Сгруппировать 790" transform="translate(-118.623)">
    <path id="Контур_1557" data-name="Контур 1557" d="M426.482,35.193V24.913A10.281,10.281,0,0,0,416.2,35.193h0v10.28a10.281,10.281,0,0,0,10.281-10.28Z" transform="translate(-283.86 -10.938)" fill="#c5934f"/>
    <path id="Контур_1558" data-name="Контур 1558" d="M391.746,35.193V24.913a10.28,10.28,0,0,1,10.28,10.28v10.28A10.28,10.28,0,0,1,391.746,35.193Z" transform="translate(-273.123 -10.938)" fill="#c5934f"/>
    <path id="Контур_1559" data-name="Контур 1559" d="M409.115,0a10.265,10.265,0,0,0,0,17.788,10.266,10.266,0,0,0,0-17.788" transform="translate(-278.492)" fill="#c5934f"/>
  </g>
</svg>
