<svg id="icon" xmlns="http://www.w3.org/2000/svg" xmlns:xlink="http://www.w3.org/1999/xlink" width="24" height="24" viewBox="0 0 24 24">
  <defs>
    <clipPath id="clip-path">
      <rect id="Прямоугольник_984" data-name="Прямоугольник 984" width="24" height="24" fill="#fff"/>
    </clipPath>
  </defs>
  <g id="Fire" clip-path="url(#clip-path)">
    <path id="Контур_1673" data-name="Контур 1673" d="M84.387,7.589a.125.125,0,0,0-.154-.041.132.132,0,0,0-.085.142c.011.112.017.226.018.339a1.767,1.767,0,0,1-.517,1.262,1.7,1.7,0,0,1-1.23.5A1.747,1.747,0,0,1,80.9,8.839a2.707,2.707,0,0,1-.028-1.865,6.472,6.472,0,0,0,.165-1.231A6.784,6.784,0,0,0,77.685.02.133.133,0,0,0,77.612,0a.142.142,0,0,0-.078.025.126.126,0,0,0-.056.133c.479,2.541-.949,4.07-2.46,5.688-1.558,1.668-3.323,3.559-3.323,6.969A7.193,7.193,0,0,0,78.88,20a7.307,7.307,0,0,0,6.994-5.531A8.328,8.328,0,0,0,84.387,7.589Z" transform="translate(-66.695 2.002)" fill="#fff"/>
  </g>
</svg>
