<svg xmlns="http://www.w3.org/2000/svg" xmlns:xlink="http://www.w3.org/1999/xlink" width="24" height="24" viewBox="0 0 24 24">
  <defs>
    <clipPath id="clip-path">
      <rect id="Прямоугольник_960" data-name="Прямоугольник 960" width="24" height="24" transform="translate(1551 103)" fill="#221f20" stroke="#707070" stroke-width="1"/>
    </clipPath>
  </defs>
  <g id="cart" transform="translate(-1551 -103)" clip-path="url(#clip-path)">
    <g id="Сгруппировать_568" data-name="Сгруппировать 568" transform="translate(-95.181 20)">
      <path id="Контур_1568" data-name="Контур 1568" d="M12.312,29.5a1.375,1.375,0,1,1-1.375-1.375A1.375,1.375,0,0,1,12.312,29.5Z" transform="translate(1641.653 75.126)" fill="#221f20"/>
      <path id="Контур_1569" data-name="Контур 1569" d="M28.1,29.5a1.375,1.375,0,1,1-1.375-1.375A1.375,1.375,0,0,1,28.1,29.5Z" transform="translate(1638.727 75.126)" fill="#221f20"/>
      <path id="Контур_1570" data-name="Контур 1570" d="M27.192,8.4a.337.337,0,0,0-.3-.241L8.239,6.36a.574.574,0,0,1-.43-.269,5.832,5.832,0,0,0-.7-1.065c-.441-.538-1.272-.521-2.8-.533a.834.834,0,0,0-.934.808.819.819,0,0,0,.894.808,7.61,7.61,0,0,1,1.489.109c.269.08.487.521.567.9a.021.021,0,0,0,.006.017c.011.069.115.584.115.59l2.291,12.12a4.454,4.454,0,0,0,.831,2.045,2.286,2.286,0,0,0,1.884.928H25.01a.814.814,0,0,0,.825-.768.8.8,0,0,0-.8-.836H11.447a.666.666,0,0,1-.475-.16,2.57,2.57,0,0,1-.659-1.489l-.246-1.357a.031.031,0,0,1,.023-.034l15.906-2.692a.335.335,0,0,0,.281-.3l.916-6.633A.327.327,0,0,0,27.192,8.4Z" transform="translate(1642.799 79.507)" fill="#221f20"/>
    </g>
  </g>
</svg>
