<svg id="Icon_ionic-ios-cart" data-name="Icon ionic-ios-cart" xmlns="http://www.w3.org/2000/svg" width="19.488" height="18" viewBox="0 0 19.488 18">
  <path id="Контур_1547" data-name="Контур 1547" d="M11.812,29.25a1.125,1.125,0,1,1-1.125-1.125A1.125,1.125,0,0,1,11.812,29.25Z" transform="translate(-5.443 -12.374)" fill="#fff"/>
  <path id="Контур_1548" data-name="Контур 1548" d="M27.6,29.25a1.125,1.125,0,1,1-1.125-1.125A1.125,1.125,0,0,1,27.6,29.25Z" transform="translate(-10.708 -12.374)" fill="#fff"/>
  <path id="Контур_1549" data-name="Контур 1549" d="M22.863,7.694a.276.276,0,0,0-.244-.2L7.356,6.021A.47.47,0,0,1,7,5.8a4.772,4.772,0,0,0-.572-.872c-.361-.441-1.04-.426-2.287-.436a.683.683,0,0,0-.764.661.67.67,0,0,0,.731.661A6.226,6.226,0,0,1,5.332,5.9c.22.066.4.426.464.74a.017.017,0,0,0,0,.014c.009.056.094.478.094.483l1.875,9.916a3.644,3.644,0,0,0,.68,1.673,1.87,1.87,0,0,0,1.542.759H21.077a.666.666,0,0,0,.675-.628.653.653,0,0,0-.656-.684H9.98a.545.545,0,0,1-.389-.131,2.1,2.1,0,0,1-.539-1.218l-.2-1.111a.026.026,0,0,1,.019-.028l13.014-2.2a.274.274,0,0,0,.23-.244l.75-5.427A.267.267,0,0,0,22.863,7.694Z" transform="translate(-3.382 -4.493)" fill="#fff"/>
</svg>
