<svg xmlns="http://www.w3.org/2000/svg" xmlns:xlink="http://www.w3.org/1999/xlink" width="220" height="220" viewBox="0 0 220 220">
  <defs>
    <clipPath id="clip-path">
      <rect id="Прямоугольник_1115" data-name="Прямоугольник 1115" width="220" height="220" fill="none"/>
    </clipPath>
  </defs>
  <g id="Сгруппировать_853" data-name="Сгруппировать 853" clip-path="url(#clip-path)">
    <g id="Сгруппировать_854" data-name="Сгруппировать 854" transform="translate(0 31.706)">
      <path id="Контур_1785" data-name="Контур 1785" d="M220,167.355c0,11.534-49.249,20.884-110,20.884S0,178.89,0,167.355s49.249-20.884,110-20.884,110,9.35,110,20.884" transform="translate(0 -31.387)" fill="#e3e3e3" fill-rule="evenodd"/>
      <path id="Контур_1786" data-name="Контур 1786" d="M40,42.211l.306.223,12.75,97.617H161.333l23.36-11.127,12.45-97.767-34.315.005-.072-6.474C162.605,11.075,150.962,0,136.8,0c-14.446,0-26.2,11.089-26.2,24.719V31.17l-41.641.007ZM157.335,31.163l-41.237.006V24.719c0-10.6,9.288-19.226,20.706-19.226,11.164,0,20.341,8.637,20.459,19.255Z" transform="translate(-8.571 0)" fill="#161615"/>
      <path id="Контур_1787" data-name="Контур 1787" d="M40.305,45.088,53.121,143H161.69l8.971-97.909H131.587l-.072-6.653c-.154-13.612-11.8-24.686-25.952-24.686-14.446,0-26.2,11.087-26.2,24.716v6.623Zm85.789,0H84.857V38.465c0-10.6,9.289-19.223,20.706-19.223,11.163,0,20.34,8.637,20.459,19.254Z" transform="translate(-8.637 -2.946)" fill="#221f20"/>
      <path id="Контур_1788" data-name="Контур 1788" d="M230.234,39.654l-12.45,97.766-23.36,11.128,9.263-97.909Z" transform="translate(-41.662 -8.498)" fill="#221f20"/>
      <path id="Контур_1789" data-name="Контур 1789" d="M179.561,105.385c1.1,3.353-4.116,8.075-11.651,10.547s-14.534,1.758-15.634-1.594,4.116-8.075,11.651-10.547,14.534-1.758,15.634,1.594" transform="translate(-32.599 -21.925)" fill="#ea2838" fill-rule="evenodd"/>
      <path id="Контур_1790" data-name="Контур 1790" d="M74.656,103.79c7.534,2.472,12.751,7.194,11.651,10.547s-8.1,4.067-15.634,1.594-12.751-7.194-11.651-10.547,8.1-4.066,15.634-1.594" transform="translate(-12.616 -21.925)" fill="#ea2838" fill-rule="evenodd"/>
      <path id="Контур_1791" data-name="Контур 1791" d="M108.236,125.528l-2.084-1.246a15.784,15.784,0,0,1,26.557-.592l-2.024,1.34a13.356,13.356,0,0,0-22.449.5" transform="translate(-22.747 -25.013)" fill="#fff"/>
      <path id="Контур_1792" data-name="Контур 1792" d="M140.346,96.027l-.854-1.673,5.23-5.231,1.4,1.4-3.076,3.076,13.309-2.134.312,1.951Z" transform="translate(-29.891 -19.098)" fill="#fff"/>
      <path id="Контур_1793" data-name="Контур 1793" d="M101.867,96.027,85.552,93.412l.312-1.951,13.308,2.134L96.1,90.519l1.4-1.4,5.23,5.231Z" transform="translate(-18.333 -19.098)" fill="#fff"/>
    </g>
  </g>
</svg>
