<svg xmlns="http://www.w3.org/2000/svg" xmlns:xlink="http://www.w3.org/1999/xlink" width="24" height="24" viewBox="0 0 24 24">
  <defs>
    <clipPath id="clip-path">
      <rect id="Прямоугольник_1107" data-name="Прямоугольник 1107" width="24" height="24" transform="translate(0 8)" fill="#fff" stroke="#707070" stroke-width="1"/>
    </clipPath>
    <clipPath id="clip-path-2">
      <rect id="Прямоугольник_1172" data-name="Прямоугольник 1172" width="16.364" height="24" fill="#292928"/>
    </clipPath>
  </defs>
  <g id="delete" transform="translate(0 -8)" clip-path="url(#clip-path)">
    <g id="Icon_material-delete" data-name="Icon material-delete" transform="translate(4 8)">
      <g id="Сгруппировать_1026" data-name="Сгруппировать 1026" transform="translate(0 0)" clip-path="url(#clip-path-2)">
        <path id="Контур_1852" data-name="Контур 1852" d="M0,20.814a2.72,2.72,0,0,0,2.727,2.693h10.91a2.719,2.719,0,0,0,2.726-2.693V6.388H0ZM1.636,8H14.727V20.809a1.094,1.094,0,0,1-1.09,1.083H2.733a1.1,1.1,0,0,1-1.1-1.077Z" transform="translate(0 0.493)" fill="#292928"/>
        <path id="Контур_1853" data-name="Контур 1853" d="M12.213,3.255a4.124,4.124,0,0,0-8.063,0H0V4.871H16.364V3.255Zm-6.36,0a2.473,2.473,0,0,1,4.657,0Z" transform="translate(0 0)" fill="#292928"/>
      </g>
    </g>
  </g>
</svg>
