<svg xmlns="http://www.w3.org/2000/svg" xmlns:xlink="http://www.w3.org/1999/xlink" width="16" height="16" viewBox="0 0 16 16">
  <defs>
    <clipPath id="clip-path">
      <rect id="Прямоугольник_1080" data-name="Прямоугольник 1080" width="16" height="16" transform="translate(349)" fill="#8f8e8e" stroke="#707070" stroke-width="1"/>
    </clipPath>
    <clipPath id="clip-path-2">
      <rect id="Прямоугольник_1079" data-name="Прямоугольник 1079" width="16" height="15.431" fill="#221f20"/>
    </clipPath>
  </defs>
  <g id="like" transform="translate(-349)" clip-path="url(#clip-path)">
    <g id="Сгруппировать_792" data-name="Сгруппировать 792" transform="translate(349 0.569)">
      <g id="Сгруппировать_791" data-name="Сгруппировать 791" clip-path="url(#clip-path-2)">
        <path id="Контур_1748" data-name="Контур 1748" d="M14.364,10.4H9.79L10.8,12.918A1.93,1.93,0,0,1,10.368,15,1.46,1.46,0,0,1,8.3,15a1.5,1.5,0,0,1-.157-.186L5.489,11.1a12.237,12.237,0,0,0-1.32-1.559L3.832,9.2A2,2,0,0,1,0,8.4V2a2,2,0,0,1,3.832-.8l.439-.44A2.59,2.59,0,0,1,6.112,0H11.3a2.1,2.1,0,0,1,1.92,1.246L15.76,6.972A2.8,2.8,0,0,1,16,8.118v.649A1.639,1.639,0,0,1,14.364,10.4" transform="translate(0 0)" fill="#221f20"/>
      </g>
    </g>
  </g>
</svg>
