<svg xmlns="http://www.w3.org/2000/svg" xmlns:xlink="http://www.w3.org/1999/xlink" width="24" height="24" viewBox="0 0 24 24">
  <defs>
    <clipPath id="clip-path">
      <rect id="Прямоугольник_1074" data-name="Прямоугольник 1074" width="24" height="24" transform="translate(1294 1228)" fill="#fff" stroke="#707070" stroke-width="1"/>
    </clipPath>
  </defs>
  <g id="Icon" transform="translate(-1294 -1228)" clip-path="url(#clip-path)">
    <g id="Сгруппировать_778" data-name="Сгруппировать 778" transform="translate(679 676)">
      <g id="Контур_1558" data-name="Контур 1558" transform="translate(617 552)" fill="#fff">
        <path d="M 16.22607612609863 23.24998092651367 L 3.599996328353882 23.24998092651367 C 2.028496265411377 23.24998092651367 0.7499963641166687 21.97148132324219 0.7499963641166687 20.39998054504395 L 0.7499963641166687 3.600000381469727 C 0.7499963641166687 2.028500556945801 2.028496265411377 0.7500004768371582 3.599996328353882 0.7500004768371582 L 13.51541614532471 0.7500004768371582 L 19.07607650756836 6.310660362243652 L 19.07607650756836 20.39998054504395 C 19.07607650756836 21.97148132324219 17.79757690429688 23.24998092651367 16.22607612609863 23.24998092651367 Z" stroke="none"/>
        <path d="M 3.599996566772461 1.5 C 2.442056655883789 1.5 1.499996185302734 2.442060470581055 1.499996185302734 3.600000381469727 L 1.499996185302734 20.39998054504395 C 1.499996185302734 21.55792045593262 2.442056655883789 22.49998092651367 3.599996566772461 22.49998092651367 L 16.22607612609863 22.49998092651367 C 17.3840160369873 22.49998092651367 18.32607650756836 21.55792045593262 18.32607650756836 20.39998054504395 L 18.32607650756836 6.621320724487305 L 13.20475578308105 1.5 L 3.599996566772461 1.5 M 3.599996566772461 0 L 13.82607650756836 0 L 19.82607650756836 6 L 19.82607650756836 20.39998054504395 C 19.82607650756836 22.38821029663086 18.21429634094238 23.99998092651367 16.22607612609863 23.99998092651367 L 3.599996566772461 23.99998092651367 C 1.611776351928711 23.99998092651367 -3.814697265625e-06 22.38821029663086 -3.814697265625e-06 20.39998054504395 L -3.814697265625e-06 3.600000381469727 C -3.814697265625e-06 1.611770629882812 1.611776351928711 0 3.599996566772461 0 Z" stroke="none" fill="#292928"/>
      </g>
      <path id="Контур_1557" data-name="Контур 1557" d="M625.261,553.583v5.977h6.022" transform="translate(4.735 -0.947)" fill="none" stroke="#292928" stroke-width="1.5"/>
    </g>
  </g>
</svg>
