<svg id="docx" xmlns="http://www.w3.org/2000/svg" xmlns:xlink="http://www.w3.org/1999/xlink" width="45.21" height="50" viewBox="0 0 45.21 50">
  <defs>
    <clipPath id="clip-path">
      <rect id="Прямоугольник_77" data-name="Прямоугольник 77" width="45.21" height="50" fill="none"/>
    </clipPath>
  </defs>
  <path id="Контур_1171" data-name="Контур 1171" d="M2.126,0V50H45.209V8.332L36.593,0Z" transform="translate(-0.448 0)" fill="#f3f3f4"/>
  <path id="Контур_1172" data-name="Контур 1172" d="M22.126,0V8.329h8.33Z" transform="translate(14.553 0)" fill="#8f8e8e"/>
  <g id="Сгруппировать_41" data-name="Сгруппировать 41">
    <g id="Сгруппировать_40" data-name="Сгруппировать 40" clip-path="url(#clip-path)">
      <path id="Контур_1173" data-name="Контур 1173" d="M34.541,29.675H0V11.5A2.662,2.662,0,0,1,2.662,8.842H39.915a1.818,1.818,0,0,1,1.75,2.313l-4.74,16.718a2.478,2.478,0,0,1-2.383,1.8" transform="translate(0 5.895)" fill="#46a5fc"/>
      <path id="Контур_1174" data-name="Контур 1174" d="M3.543,25.172v-3.83H0Z" transform="translate(0 14.228)" fill="#0081b6"/>
      <path id="Контур_1175" data-name="Контур 1175" d="M5.665,24.315a3.807,3.807,0,0,1-1.617-.345,3.7,3.7,0,0,1-1.278-.977,4.556,4.556,0,0,1-.836-1.576,6.913,6.913,0,0,1-.3-2.095,6.813,6.813,0,0,1,.3-2.091,4.509,4.509,0,0,1,.845-1.571,3.709,3.709,0,0,1,1.281-.966,3.817,3.817,0,0,1,1.615-.339,3.4,3.4,0,0,1,.948.125,3.072,3.072,0,0,1,.705.289,2.519,2.519,0,0,1,.52.429,3.393,3.393,0,0,1,.354.431c.069.11.151.248.248.414h.112V11.263h1.878V24.126H8.61v-1.5H8.454a4.81,4.81,0,0,1-.254.418,3.863,3.863,0,0,1-.367.436,2.462,2.462,0,0,1-.526.423,2.967,2.967,0,0,1-.709.289,3.377,3.377,0,0,1-.933.123m.414-1.6a2.149,2.149,0,0,0,1.856-.929A4.189,4.189,0,0,0,8.6,19.3a4.084,4.084,0,0,0-.657-2.449,2.159,2.159,0,0,0-1.862-.9,2.26,2.26,0,0,0-1.406.442,2.59,2.59,0,0,0-.864,1.19,4.894,4.894,0,0,0-.28,1.722,5,5,0,0,0,.284,1.742,2.679,2.679,0,0,0,.866,1.216,2.227,2.227,0,0,0,1.4.451" transform="translate(3.509 6.594)" fill="#fff"/>
      <path id="Контур_1176" data-name="Контур 1176" d="M13.923,22.267a4.462,4.462,0,0,1-2.367.617,4.471,4.471,0,0,1-2.367-.617,4.071,4.071,0,0,1-1.576-1.75A5.848,5.848,0,0,1,7.06,17.91a5.221,5.221,0,0,1,1.229-3.622,4.174,4.174,0,0,1,3.266-1.367,4.172,4.172,0,0,1,3.266,1.367,5.2,5.2,0,0,1,1.231,3.622,5.848,5.848,0,0,1-.552,2.608,4.063,4.063,0,0,1-1.578,1.75m-2.36-.959a2.425,2.425,0,0,0,1.145-.269,2.205,2.205,0,0,0,.817-.742A3.651,3.651,0,0,0,14,19.219a5.518,5.518,0,0,0,0-2.626,3.74,3.74,0,0,0-.472-1.086,2.21,2.21,0,0,0-.817-.744,2.529,2.529,0,0,0-2.3,0,2.23,2.23,0,0,0-.819.744,3.6,3.6,0,0,0-.476,1.086,5.517,5.517,0,0,0,0,2.626A3.517,3.517,0,0,0,9.591,20.3a2.225,2.225,0,0,0,.819.742,2.444,2.444,0,0,0,1.153.269" transform="translate(8.955 8.028)" fill="#fff"/>
      <path id="Контур_1177" data-name="Контур 1177" d="M16.766,22.886a4.441,4.441,0,0,1-2.4-.638A4.076,4.076,0,0,1,12.8,20.487a5.926,5.926,0,0,1-.533-2.576,5.863,5.863,0,0,1,.548-2.6,4.151,4.151,0,0,1,1.571-1.765,4.379,4.379,0,0,1,2.358-.63,4.2,4.2,0,0,1,2.738.888,3.351,3.351,0,0,1,1.244,2.352H18.9A2.064,2.064,0,0,0,16.779,14.5a2.293,2.293,0,0,0-1.9.912,3.874,3.874,0,0,0-.716,2.455,4.015,4.015,0,0,0,.711,2.5,2.273,2.273,0,0,0,1.9.925,2.2,2.2,0,0,0,1.378-.438,2.053,2.053,0,0,0,.744-1.22H20.73a3.453,3.453,0,0,1-1.222,2.343,4.078,4.078,0,0,1-2.742.9" transform="translate(14.297 8.027)" fill="#fff"/>
    </g>
  </g>
</svg>
