<svg xmlns="http://www.w3.org/2000/svg" xmlns:xlink="http://www.w3.org/1999/xlink" width="45.209" height="50" viewBox="0 0 45.209 50">
  <defs>
    <clipPath id="clip-path">
      <rect id="Прямоугольник_1123" data-name="Прямоугольник 1123" width="45.209" height="50" fill="none"/>
    </clipPath>
  </defs>
  <g id="excel" transform="translate(0 0)">
    <path id="Контур_1815" data-name="Контур 1815" d="M3.543,0V50H45.208V8.332L36.875,0Z" fill="#f3f3f4"/>
    <path id="Контур_1816" data-name="Контур 1816" d="M36.876,0V8.332h8.333Z" fill="#8f8e8e"/>
    <g id="Сгруппировать_872" data-name="Сгруппировать 872">
      <g id="Сгруппировать_871" data-name="Сгруппировать 871" clip-path="url(#clip-path)">
        <path id="Контур_1817" data-name="Контур 1817" d="M34.541,35.57H0V17.4a2.661,2.661,0,0,1,2.662-2.658H39.915a1.817,1.817,0,0,1,1.75,2.313l-4.74,16.718a2.478,2.478,0,0,1-2.383,1.8" fill="#34b866"/>
        <path id="Контур_1818" data-name="Контур 1818" d="M3.543,39.4V35.57H0Z" fill="#227540"/>
        <path id="Контур_1819" data-name="Контур 1819" d="M6.357,21.275l2.075,3.662,2.1-3.662h2L9.6,25.979l2.958,4.7h-2L8.432,27.166,6.321,30.681H4.311l2.927-4.7-2.889-4.7Z" fill="#fff"/>
        <rect id="Прямоугольник_1122" data-name="Прямоугольник 1122" width="1.831" height="12.541" transform="translate(14.415 18.14)" fill="#fff"/>
        <path id="Контур_1820" data-name="Контур 1820" d="M25.755,23.572l-1.66.293a1.886,1.886,0,0,0-.64-.9,1.948,1.948,0,0,0-1.24-.359,2.29,2.29,0,0,0-1.3.349,1.026,1.026,0,0,0-.515.888.924.924,0,0,0,.344.76,2.826,2.826,0,0,0,1.132.471l1.5.342a4.007,4.007,0,0,1,1.935.928,2.18,2.18,0,0,1,.637,1.621,2.518,2.518,0,0,1-1.072,2.093,4.46,4.46,0,0,1-2.774.814,4.5,4.5,0,0,1-2.581-.676,2.838,2.838,0,0,1-1.222-1.925L20.059,28a1.68,1.68,0,0,0,.681,1.044,2.324,2.324,0,0,0,1.34.352,2.506,2.506,0,0,0,1.43-.37,1.092,1.092,0,0,0,.548-.928q0-.9-1.328-1.194l-1.593-.349q-2.569-.57-2.571-2.614a2.414,2.414,0,0,1,1.013-2.015,4.2,4.2,0,0,1,2.617-.772,3.985,3.985,0,0,1,2.37.64,3.04,3.04,0,0,1,1.189,1.779" fill="#fff"/>
        <path id="Контур_1821" data-name="Контур 1821" d="M29.393,21.275l2.075,3.662,2.1-3.662h2l-2.932,4.7,2.958,4.7h-2l-2.119-3.515-2.111,3.515h-2.01l2.927-4.7-2.889-4.7Z" fill="#fff"/>
      </g>
    </g>
  </g>
</svg>
