<svg xmlns="http://www.w3.org/2000/svg" width="17.439" height="16" viewBox="0 0 17.439 16">
  <g id="Icon_metro-favorite" data-name="Icon metro-favorite" transform="translate(-5.141 -6.427)" fill="none">
    <path d="M13.861,22.427,12.6,21.28C8.106,17.2,5.141,14.514,5.141,11.222a4.744,4.744,0,0,1,4.8-4.8,5.232,5.232,0,0,1,3.924,1.818,5.232,5.232,0,0,1,3.924-1.818,4.744,4.744,0,0,1,4.8,4.8c0,3.292-2.965,5.981-7.455,10.058l-1.264,1.147Z" stroke="none"/>
    <path d="M 13.86074542999268 20.40176200866699 L 14.12203884124756 20.1647891998291 C 18.3120288848877 16.36123847961426 21.08009910583496 13.84846878051758 21.08009910583496 11.22238826751709 C 21.08009910583496 10.32208919525146 20.74279975891113 9.488968849182129 20.13033866882324 8.876499176025391 C 19.51786994934082 8.264039039611816 18.68474960327148 7.926738739013672 17.78444862365723 7.926738739013672 C 16.73347854614258 7.926738739013672 15.69289970397949 8.409988403320312 15.00088882446289 9.219438552856445 L 13.86074924468994 10.55306911468506 L 12.72060966491699 9.219438552856445 C 12.02859878540039 8.409988403320312 10.98801898956299 7.926738739013672 9.93704891204834 7.926738739013672 C 9.036739349365234 7.926738739013672 8.203619003295898 8.264039039611816 7.591159343719482 8.876499176025391 C 6.978699207305908 9.488958358764648 6.641399383544922 10.32207870483398 6.641399383544922 11.22238826751709 C 6.641399383544922 13.84847831726074 9.409489631652832 16.36126899719238 13.59951877593994 20.16484832763672 L 13.86074542999268 20.40176200866699 M 13.86074924468994 22.42673873901367 L 12.59643936157227 21.28013801574707 C 8.105978965759277 17.20383834838867 5.141399383544922 14.51393890380859 5.141399383544922 11.22238826751709 C 5.141399383544922 8.532458305358887 7.247119426727295 6.426738739013672 9.93704891204834 6.426738739013672 C 11.45420932769775 6.426738739013672 12.91032886505127 7.13300895690918 13.86074924468994 8.244718551635742 C 14.81116962432861 7.13300895690918 16.26727867126465 6.426738739013672 17.78444862365723 6.426738739013672 C 20.47436904907227 6.426738739013672 22.58009910583496 8.532458305358887 22.58009910583496 11.22238826751709 C 22.58009910583496 14.51393890380859 19.61550903320312 17.20383834838867 15.12505912780762 21.28013801574707 L 13.86074924468994 22.42673873901367 Z" stroke="none" fill="#221f20"/>
  </g>
</svg>
