<svg xmlns="http://www.w3.org/2000/svg" xmlns:xlink="http://www.w3.org/1999/xlink" width="18.002" height="17.999" viewBox="0 0 18.002 17.999">
  <defs>
    <clipPath id="clip-path">
      <rect id="Прямоугольник_1033" data-name="Прямоугольник 1033" width="18.002" height="17.999" transform="translate(0 0)" fill="#221f20"/>
    </clipPath>
  </defs>
  <g id="Сгруппировать_710" data-name="Сгруппировать 710" transform="translate(0 0)">
    <g id="Сгруппировать_709" data-name="Сгруппировать 709" clip-path="url(#clip-path)">
      <path id="Контур_1712" data-name="Контур 1712" d="M3.938,18H5.063a.565.565,0,0,0,.563-.562v-6.75a.565.565,0,0,0-.563-.562H3.938l-.562.04a3.9,3.9,0,0,0-1.543.569,7.312,7.312,0,1,1,14.336,0,3.922,3.922,0,0,0-1.543-.57l-.563-.039H12.938a.564.564,0,0,0-.562.562v6.75a.565.565,0,0,0,.562.563h1.125l.563-.041a3.938,3.938,0,0,0,2.836-5.887A8.976,8.976,0,0,0,18,9V9A9,9,0,1,0,.54,12.071a3.938,3.938,0,0,0,2.836,5.886Z" fill="#221f20"/>
    </g>
  </g>
</svg>
