<svg xmlns="http://www.w3.org/2000/svg" xmlns:xlink="http://www.w3.org/1999/xlink" width="16" height="16" viewBox="0 0 16 16">
  <defs>
    <clipPath id="clip-path">
      <rect id="Прямоугольник_1080" data-name="Прямоугольник 1080" width="16" height="16" transform="translate(349 2230)" fill="#8f8e8e" stroke="#707070" stroke-width="1"/>
    </clipPath>
    <clipPath id="clip-path-2">
      <rect id="Прямоугольник_1079" data-name="Прямоугольник 1079" width="16" height="15.431" fill="#221f20"/>
    </clipPath>
  </defs>
  <g id="like" transform="translate(-349 -2230)" clip-path="url(#clip-path)">
    <g id="Сгруппировать_792" data-name="Сгруппировать 792" transform="translate(349 2230)">
      <g id="Сгруппировать_791" data-name="Сгруппировать 791" clip-path="url(#clip-path-2)">
        <path id="Контур_1748" data-name="Контур 1748" d="M14.364,5.027H9.79L10.8,2.514A1.93,1.93,0,0,0,10.368.428,1.46,1.46,0,0,0,8.3.427a1.5,1.5,0,0,0-.157.186L5.489,4.333a12.237,12.237,0,0,1-1.32,1.559l-.336.336A2,2,0,0,0,0,7.029v6.4a2,2,0,0,0,3.832.8l.439.44a2.59,2.59,0,0,0,1.84.762H11.3a2.1,2.1,0,0,0,1.92-1.246L15.76,8.459A2.8,2.8,0,0,0,16,7.314V6.665a1.639,1.639,0,0,0-1.636-1.638" transform="translate(0 0)" fill="#221f20"/>
      </g>
    </g>
  </g>
</svg>
