<svg xmlns="http://www.w3.org/2000/svg" xmlns:xlink="http://www.w3.org/1999/xlink" width="30" height="30" viewBox="0 0 30 30">
  <defs>
    <clipPath id="clip-path">
      <rect id="Прямоугольник_1011" data-name="Прямоугольник 1011" width="30" height="30" transform="translate(20 8)" fill="#c5934f" stroke="#707070" stroke-width="1"/>
    </clipPath>
  </defs>
  <g id="Icon_material-email" data-name="Icon material-email" transform="translate(-20 -8)" clip-path="url(#clip-path)">
    <path id="Icon_awesome-mobile" data-name="Icon awesome-mobile" d="M15.937-1,2.813,0A2.813,2.813,0,0,0,0,2.813V27.188A2.813,2.813,0,0,0,2.813,30H15.937a2.813,2.813,0,0,0,2.813-2.813V2.813C18.75,1.26,17.49-1,15.937-1ZM9.375,27.125A1.875,1.875,0,1,1,11.25,25.25,1.873,1.873,0,0,1,9.375,27.125Z" transform="translate(25.625 8)" fill="#c5934f"/>
  </g>
</svg>
