<svg xmlns="http://www.w3.org/2000/svg" xmlns:xlink="http://www.w3.org/1999/xlink" width="24" height="24" viewBox="0 0 24 24">
  <defs>
    <clipPath id="clip-path">
      <rect id="Прямоугольник_1065" data-name="Прямоугольник 1065" width="24" height="24" transform="translate(0)" fill="#221f20" stroke="#707070" stroke-width="1"/>
    </clipPath>
  </defs>
  <g id="Icon_awesome-tasks" data-name="Icon awesome-tasks" transform="translate(0)" clip-path="url(#clip-path)">
    <path id="Icon_awesome-tasks-2" data-name="Icon awesome-tasks" d="M7.088,2.427a.609.609,0,0,0-.863,0L2.992,5.641,1.839,4.518a.609.609,0,0,0-.863,0l-.8.8a.609.609,0,0,0,0,.863L2.6,8.586a.649.649,0,0,0,.894,0l.791-.793L7.946,4.128a.614.614,0,0,0,0-.863Zm0,8.082a.609.609,0,0,0-.863,0L2.992,13.744,1.839,12.622a.609.609,0,0,0-.863,0l-.8.8a.609.609,0,0,0,0,.863l2.41,2.412a.648.648,0,0,0,.894,0l.8-.8L7.945,12.23a.609.609,0,0,0,0-.858Zm-3.839,8.8a2.437,2.437,0,1,0,0,4.874,2.437,2.437,0,1,0,0-4.874Zm19.938.812H10.56a.812.812,0,0,0-.812.812v1.625a.812.812,0,0,0,.812.812H23.188A.812.812,0,0,0,24,22.557V20.933A.812.812,0,0,0,23.188,20.12Zm0-16.246H10.56a.812.812,0,0,0-.812.812V6.311a.812.812,0,0,0,.812.812H23.188A.812.812,0,0,0,24,6.311V4.686A.812.812,0,0,0,23.188,3.874Zm0,8.123H10.56a.812.812,0,0,0-.812.812v1.625a.812.812,0,0,0,.812.812H23.188A.812.812,0,0,0,24,14.434V12.809A.812.812,0,0,0,23.188,12Z" transform="translate(0 -1.248)" fill="#221f20"/>
  </g>
</svg>
