<svg id="pdf" xmlns="http://www.w3.org/2000/svg" xmlns:xlink="http://www.w3.org/1999/xlink" width="45.21" height="50" viewBox="0 0 45.21 50">
  <defs>
    <clipPath id="clip-path">
      <rect id="Прямоугольник_78" data-name="Прямоугольник 78" width="45.21" height="49.999" fill="none"/>
    </clipPath>
  </defs>
  <path id="Контур_1179" data-name="Контур 1179" d="M2.126,0V50H43.792V8.332L35.459,0Z" transform="translate(1.417 0)" fill="#f3f3f4"/>
  <path id="Контур_1180" data-name="Контур 1180" d="M22.126,0V8.332h8.333Z" transform="translate(14.75 0)" fill="#8f8e8e"/>
  <g id="Сгруппировать_43" data-name="Сгруппировать 43">
    <g id="Сгруппировать_42" data-name="Сгруппировать 42" clip-path="url(#clip-path)">
      <path id="Контур_1181" data-name="Контур 1181" d="M34.541,29.675H0V11.5A2.662,2.662,0,0,1,2.662,8.842H39.915a1.818,1.818,0,0,1,1.75,2.313l-4.74,16.718a2.478,2.478,0,0,1-2.383,1.8" transform="translate(0 5.895)" fill="#ea2838"/>
      <path id="Контур_1182" data-name="Контур 1182" d="M3.543,25.172v-3.83H0Z" transform="translate(0 14.228)" fill="#b01f46"/>
      <path id="Контур_1183" data-name="Контур 1183" d="M4.48,25.681V12.819H6.257v1.517h.152c.089-.157.17-.291.239-.4a3.215,3.215,0,0,1,.344-.421,2.335,2.335,0,0,1,.5-.418,3.013,3.013,0,0,1,.685-.28A3.334,3.334,0,0,1,9.1,12.7a3.725,3.725,0,0,1,1.567.33,3.622,3.622,0,0,1,1.247.937,4.4,4.4,0,0,1,.819,1.524,6.573,6.573,0,0,1,.294,2.027,5.337,5.337,0,0,1-1.09,3.535,3.5,3.5,0,0,1-2.819,1.306,3.254,3.254,0,0,1-.9-.118,2.991,2.991,0,0,1-.687-.28,2.431,2.431,0,0,1-.51-.41,3.728,3.728,0,0,1-.355-.425,4.706,4.706,0,0,1-.248-.405H6.3v4.962ZM6.264,17.5A4.051,4.051,0,0,0,6.908,19.9a2.087,2.087,0,0,0,1.8.9,2.161,2.161,0,0,0,1.361-.439,2.577,2.577,0,0,0,.844-1.178,4.865,4.865,0,0,0,.273-1.69,4.707,4.707,0,0,0-.271-1.668,2.5,2.5,0,0,0-.837-1.154,2.195,2.195,0,0,0-1.37-.428,2.094,2.094,0,0,0-1.8.876A3.963,3.963,0,0,0,6.264,17.5" transform="translate(2.987 8.277)" fill="#fff"/>
      <path id="Контур_1184" data-name="Контур 1184" d="M14.092,23.675a3.682,3.682,0,0,1-1.568-.335,3.57,3.57,0,0,1-1.238-.947,4.42,4.42,0,0,1-.812-1.529,6.725,6.725,0,0,1-.291-2.031,6.573,6.573,0,0,1,.294-2.027,4.348,4.348,0,0,1,.819-1.522,3.6,3.6,0,0,1,1.242-.939,3.725,3.725,0,0,1,1.567-.33,3.328,3.328,0,0,1,.919.121,3.061,3.061,0,0,1,.683.282,2.465,2.465,0,0,1,.5.416,3.019,3.019,0,0,1,.343.418c.068.107.148.241.243.4h.109V11.019h1.82V23.491H16.949V22.035H16.8a4.707,4.707,0,0,1-.248.405,3.927,3.927,0,0,1-.355.425,2.42,2.42,0,0,1-.51.41,2.992,2.992,0,0,1-.687.28,3.253,3.253,0,0,1-.9.12m.4-1.554a2.082,2.082,0,0,0,1.8-.9,4.064,4.064,0,0,0,.642-2.405A3.963,3.963,0,0,0,16.3,16.44a2.1,2.1,0,0,0-1.806-.876,2.192,2.192,0,0,0-1.363.428,2.488,2.488,0,0,0-.837,1.154,4.707,4.707,0,0,0-.271,1.668A4.865,4.865,0,0,0,12.3,20.5a2.6,2.6,0,0,0,.84,1.178,2.151,2.151,0,0,0,1.358.439" transform="translate(7.459 6.961)" fill="#fff"/>
      <path id="Контур_1185" data-name="Контур 1185" d="M21.245,14.393v1.463H19.23v7.892H17.4V15.857H15.958V14.393H17.4V13.31a2.787,2.787,0,0,1,.227-1.149,2.168,2.168,0,0,1,.61-.824,2.782,2.782,0,0,1,.881-.482,3.345,3.345,0,0,1,1.058-.164,4.3,4.3,0,0,1,1.524.25l-.426,1.474a2.715,2.715,0,0,0-.815-.139,1.212,1.212,0,0,0-.942.319,1.4,1.4,0,0,0-.287.958v.84Z" transform="translate(11.989 6.703)" fill="#fff"/>
    </g>
  </g>
</svg>
