<svg id="gr101w50vce91jd2ddf8szjdz6eghbpw" xmlns="http://www.w3.org/2000/svg" width="93.828" height="20" viewBox="0 0 93.828 20">
  <g id="Сгруппировать_655" data-name="Сгруппировать 655" transform="translate(0 5.002)">
    <g id="Сгруппировать_654" data-name="Сгруппировать 654">
      <path id="SVGID_1_" d="M1.959,17.579c-.08-3.96,6.159-3.96,6.079-.04A2.851,2.851,0,0,1,5,20.5a2.819,2.819,0,0,1-3.04-2.92m-.48-3.56A4.841,4.841,0,0,0,0,17.539v9a.981.981,0,0,0,1.96,0v-5a5.018,5.018,0,0,0,8.039-4A5.068,5.068,0,0,0,4.839,12.5a4.929,4.929,0,0,0-3.36,1.52" transform="translate(0.001 -12.5)" fill="#fff"/>
    </g>
  </g>
  <g id="Сгруппировать_657" data-name="Сгруппировать 657" transform="translate(11.479 0.042)">
    <g id="Сгруппировать_656" data-name="Сгруппировать 656">
      <path id="SVGID_3_" d="M28.7,1.06v13a1.008,1.008,0,0,0,1.72.72.907.907,0,0,0,.28-.72v-13a.933.933,0,0,0-1-.96.956.956,0,0,0-1,.96" transform="translate(-28.697 -0.1)" fill="#fff"/>
    </g>
  </g>
  <g id="Сгруппировать_659" data-name="Сгруппировать 659" transform="translate(14.846 5.04)">
    <g id="Сгруппировать_658" data-name="Сгруппировать 658">
      <path id="SVGID_5_" d="M45.109,17.556a2.941,2.941,0,1,1-5.879,0,2.928,2.928,0,0,1,3-3.04,2.853,2.853,0,0,1,2.88,3.04m-6.479-3.52c-4.4,4.319,1.72,11.2,6.559,7.519.04,1.24,2,1.32,1.96,0v-3.92A4.929,4.929,0,0,0,42.069,12.6a4.4,4.4,0,0,0-3.44,1.44" transform="translate(-37.117 -12.594)" fill="#fff"/>
    </g>
  </g>
  <g id="Сгруппировать_661" data-name="Сгруппировать 661" transform="translate(26.077 4.962)">
    <g id="Сгруппировать_660" data-name="Сгруппировать 660">
      <path id="SVGID_7_" d="M65.2,15.44a2.808,2.808,0,0,0,2.92,3c2.24.32.24,3.4-1,1.44-1.48-2.24-2.96.56-.88,1.92,2.84,2.4,6.639-1.96,4-4.479-.76-.96-1.96-.6-2.84-1.2-1.16-1.12,1.08-2.56,1.64-1.2,1.8,2.72,3.52-2.28-.92-2.52h-.08a2.915,2.915,0,0,0-2.84,3.04" transform="translate(-65.2 -12.4)" fill="#fff"/>
    </g>
  </g>
  <g id="Сгруппировать_663" data-name="Сгруппировать 663" transform="translate(32.916 0.001)">
    <g id="Сгруппировать_662" data-name="Сгруппировать 662">
      <path id="SVGID_9_" d="M85.7,0c-1.72-.08-.76,4.079-.96,5H84.3c-.84-.04-2-.08-2,1-.04,1.08,1.16,1.04,2,1h.4v7.039a.98.98,0,1,0,1.96,0V6.957h1.4a.933.933,0,0,0,.96-1,.933.933,0,0,0-.96-1h-1.4c-.2-.84.76-4.959-.88-4.959H85.7" transform="translate(-82.298 0.003)" fill="#fff"/>
    </g>
  </g>
  <g id="Сгруппировать_665" data-name="Сгруппировать 665" transform="translate(40.715 1.002)">
    <g id="Сгруппировать_664" data-name="Сгруппировать 664">
      <path id="SVGID_11_" d="M101.838,7.459c.08.24-.28,8.959.28,8.759a.988.988,0,0,0,1.68-.72V7.459a.933.933,0,0,0-1-.96.944.944,0,0,0-.96.96m1.04-4.959a.933.933,0,0,0-.96,1,.933.933,0,0,0,.96,1,.913.913,0,0,0,.96-1,.981.981,0,0,0-.96-1h0" transform="translate(-101.797 -2.5)" fill="#fff"/>
    </g>
  </g>
  <g id="Сгруппировать_667" data-name="Сгруппировать 667" transform="translate(44.314 0.042)">
    <g id="Сгруппировать_666" data-name="Сгруппировать 666">
      <path id="SVGID_13_" d="M110.8,1.06v13a1.008,1.008,0,0,0,1.72.72.907.907,0,0,0,.28-.72v-13a.933.933,0,0,0-1-.96.956.956,0,0,0-1,.96" transform="translate(-110.797 -0.1)" fill="#fff"/>
    </g>
  </g>
  <g id="Сгруппировать_669" data-name="Сгруппировать 669" transform="translate(47.835 1.002)">
    <g id="Сгруппировать_668" data-name="Сгруппировать 668">
      <path id="SVGID_15_" d="M119.6,7.459V15.5a.99.99,0,0,0,1,1,.957.957,0,0,0,.96-1V7.459a.933.933,0,0,0-1-.96.922.922,0,0,0-.96.96m1-4.959a.933.933,0,0,0-.96,1,.933.933,0,0,0,.96,1,.913.913,0,0,0,.96-1,.933.933,0,0,0-.96-1h0" transform="translate(-119.6 -2.5)" fill="#fff"/>
    </g>
  </g>
  <g id="Сгруппировать_671" data-name="Сгруппировать 671" transform="translate(51.217 4.962)">
    <g id="Сгруппировать_670" data-name="Сгруппировать 670">
      <path id="SVGID_17_" d="M128.113,21.439c-.04,1.28,2.04,1.28,1.96,0v-4c-.08-3.96,6.159-3.92,6.079,0v4a.98.98,0,0,0,1.96,0c.24-3.92.2-8.879-5.039-9.039-5.119.16-5.159,5.079-4.959,9.039" transform="translate(-128.056 -12.4)" fill="#fff"/>
    </g>
  </g>
  <g id="Сгруппировать_672" data-name="Сгруппировать 672" transform="translate(69.118)">
    <path id="Контур_1681" data-name="Контур 1681" d="M182.849,21.5c.08,1.32-1.92,1.24-1.96,0-4.839,3.72-10.959-3.2-6.559-7.519,2.96-3.2,8.719-.84,8.519,3.56V21.5Zm-4.919-.96c3.88.12,3.84-6.119,0-6.039-3.919-.12-4.079,6.159,0,6.039" transform="translate(-172.817 -7.499)" fill="#fff"/>
    <path id="Контур_1682" data-name="Контур 1682" d="M203.284,21.353a.98.98,0,0,1-1.96,0v-4c-.64-2.76,5-7.119,6.039-4.039a1.016,1.016,0,0,1-1,1c-3.72-.08-3.04,4.639-3.08,7.039" transform="translate(-189.892 -7.353)" fill="#fff"/>
    <path id="Контур_1683" data-name="Контур 1683" d="M223.558,5a.98.98,0,0,1,0,1.96h-1.4v7.039a1.016,1.016,0,0,1-1,1,.981.981,0,0,1-.96-1V6.955c-.8,0-2.44.24-2.4-1-.04-1.24,1.64-.96,2.4-.96.24-.92-.76-5.079.96-5,1.72-.12.76,4.079,1,5Z" transform="translate(-199.808 0.006)" fill="#fff"/>
  </g>
  <g id="Сгруппировать_673" data-name="Сгруппировать 673" transform="translate(10.76 16.76)">
    <path id="Контур_1684" data-name="Контур 1684" d="M29.98,45.18h-.36l-.6-2.08a.8.8,0,0,1-.08-.36l-.08-.24a3.332,3.332,0,0,1-.16.6l-.6,2.08h-.36L26.9,42.1h.4l.48,1.92a5.143,5.143,0,0,1,.16.76,5.144,5.144,0,0,1,.16-.76l.56-1.88h.4l.56,1.92a3.608,3.608,0,0,1,.16.76c.04-.2.08-.44.16-.76l.48-1.92h.4Z" transform="translate(-26.9 -42.02)" fill="#fff"/>
    <path id="Контур_1685" data-name="Контур 1685" d="M55.02,45.18H53.3V42.1h1.72v.32H53.66v1h1.28v.32H53.66v1.12h1.36Z" transform="translate(-42.741 -42.02)" fill="#fff"/>
    <path id="Контур_1686" data-name="Контур 1686" d="M74.8,42.1h.88a1.846,1.846,0,0,1,.92.2.605.605,0,0,1,.28.56.728.728,0,0,1-.16.44.673.673,0,0,1-.44.24v.04c.48.08.72.32.72.76a.746.746,0,0,1-.28.64,1.153,1.153,0,0,1-.76.24H74.88Zm.32,1.32h.56a1.059,1.059,0,0,0,.56-.12.611.611,0,0,0,.16-.4.555.555,0,0,0-.2-.4,1.059,1.059,0,0,0-.56-.12h-.52Zm0,.32V44.9h.64a.782.782,0,0,0,.56-.16.516.516,0,0,0,.2-.44.441.441,0,0,0-.2-.4,1.059,1.059,0,0,0-.56-.12Z" transform="translate(-55.642 -42.02)" fill="#fff"/>
    <path id="Контур_1687" data-name="Контур 1687" d="M117.02,44.32a.8.8,0,0,1-.28.64,1.194,1.194,0,0,1-.8.24,2.337,2.337,0,0,1-.84-.12v-.36a1.174,1.174,0,0,0,.4.12,1.641,1.641,0,0,0,.44.04,1.161,1.161,0,0,0,.56-.12.492.492,0,0,0,.2-.4.429.429,0,0,0-.08-.24c-.04-.08-.12-.12-.24-.2a1.532,1.532,0,0,0-.44-.2,1.4,1.4,0,0,1-.6-.36.791.791,0,0,1-.2-.56.726.726,0,0,1,.24-.56,1.286,1.286,0,0,1,.72-.24,2.846,2.846,0,0,1,.84.16l-.08.32a2.582,2.582,0,0,0-.76-.16.643.643,0,0,0-.44.12.507.507,0,0,0-.16.36.429.429,0,0,0,.08.24.472.472,0,0,0,.2.2,1.843,1.843,0,0,0,.4.2,1.521,1.521,0,0,1,.68.4A.676.676,0,0,1,117.02,44.32Z" transform="translate(-79.824 -41.96)" fill="#fff"/>
    <path id="Контур_1688" data-name="Контур 1688" d="M137.22,45.18h-.36V42.42h-.96V42.1h2.32v.32h-.96l-.04,2.76Z" transform="translate(-92.306 -42.02)" fill="#fff"/>
    <path id="Контур_1689" data-name="Контур 1689" d="M160.56,42.04v2a1.008,1.008,0,0,1-.32.84,1.293,1.293,0,0,1-.88.28,1.167,1.167,0,0,1-.88-.28,1.127,1.127,0,0,1-.28-.84v-2h.36v2.04a.671.671,0,0,0,.24.56.9.9,0,0,0,.6.2.982.982,0,0,0,.6-.2.836.836,0,0,0,.24-.6V42l.32.04Z" transform="translate(-105.687 -41.96)" fill="#fff"/>
    <path id="Контур_1690" data-name="Контур 1690" d="M184.08,43.52a1.462,1.462,0,0,1-.4,1.16,1.8,1.8,0,0,1-1.2.4h-.88V42h.92a1.425,1.425,0,0,1,1.12.4A1.505,1.505,0,0,1,184.08,43.52Zm-.4.04a1.068,1.068,0,0,0-1.2-1.24h-.52V44.8h.44a1.22,1.22,0,0,0,.96-.32A1.129,1.129,0,0,0,183.68,43.56Z" transform="translate(-119.728 -41.96)" fill="#fff"/>
    <path id="Контур_1691" data-name="Контур 1691" d="M204.9,45.18V42.1h.36v3.08Z" transform="translate(-133.709 -42.02)" fill="#fff"/>
    <path id="Контур_1692" data-name="Контур 1692" d="M225.72,43.5a1.578,1.578,0,0,1-.4,1.16,1.3,1.3,0,0,1-1.04.4,1.448,1.448,0,0,1-1.08-.4,1.8,1.8,0,0,1-.4-1.2,1.462,1.462,0,0,1,.4-1.16,1.335,1.335,0,0,1,1.08-.4,1.249,1.249,0,0,1,1.04.4A1.678,1.678,0,0,1,225.72,43.5Zm-2.48,0a1.619,1.619,0,0,0,.24.96.9.9,0,0,0,.76.32.81.81,0,0,0,.76-.32,1.706,1.706,0,0,0,.24-.96,1.409,1.409,0,0,0-.24-.92.907.907,0,0,0-.76-.32.81.81,0,0,0-.76.32A1.811,1.811,0,0,0,223.24,43.5Z" transform="translate(-144.45 -41.9)" fill="#fff"/>
  </g>
</svg>
