<svg xmlns="http://www.w3.org/2000/svg" xmlns:xlink="http://www.w3.org/1999/xlink" width="34" height="34" viewBox="0 0 34 34">
  <defs>
    <clipPath id="clip-path">
      <rect id="Прямоугольник_1092" data-name="Прямоугольник 1092" width="34" height="34" transform="translate(17 20)" fill="#c5934f" stroke="#707070" stroke-width="1"/>
    </clipPath>
    <clipPath id="clip-path-2">
      <rect id="Прямоугольник_1096" data-name="Прямоугольник 1096" width="34" height="30.17" transform="translate(0 0)" fill="none"/>
    </clipPath>
  </defs>
  <g id="delivery" transform="translate(-17 -20)" clip-path="url(#clip-path)">
    <g id="Сгруппировать_818" data-name="Сгруппировать 818" transform="translate(17 22)">
      <g id="Сгруппировать_817" data-name="Сгруппировать 817" clip-path="url(#clip-path-2)">
        <path id="Контур_1768" data-name="Контур 1768" d="M31.42,7.292,28.953,5.841,14.977,28.627l2.468,1.451a.668.668,0,0,0,.9-.221l13.3-21.68a.637.637,0,0,0-.225-.885" fill="#221f20"/>
        <path id="Контур_1769" data-name="Контур 1769" d="M19.179.092a.668.668,0,0,0-.9.221l-13.3,21.68a.638.638,0,0,0,.226.885l8.049,4.734L27.229,4.826Z" fill="#221f20"/>
        <path id="Контур_1770" data-name="Контур 1770" d="M7.158,11.937,5.49,14.427a1.2,1.2,0,0,0,.38,1.7,1.228,1.228,0,0,0,.3.123l8.22-13.686h-.115a24.055,24.055,0,0,0-13.7,4.4l-.029.02A1.291,1.291,0,0,0,.385,8.962l.021.02a1.319,1.319,0,0,0,1.418.289l2.059-.824a.2.2,0,0,1,.216.324l-1.48,1.517a1.463,1.463,0,0,0,.168,2.192l.024.018a1.465,1.465,0,0,0,1.463.178l2.577-1.108a.25.25,0,0,1,.307.369" fill="#221f20"/>
        <path id="Контур_1771" data-name="Контур 1771" d="M31.263,12.77l-.054-.1L22.99,26.354a1.182,1.182,0,0,0,.246.2,1.2,1.2,0,0,0,1.681-.464l1.413-2.642a.252.252,0,0,1,.472.1l.232,2.8a1.462,1.462,0,0,0,.844,1.208l.026.013a1.465,1.465,0,0,0,2.016-.882l.643-2.019a.2.2,0,0,1,.388.039c.071.667.17,1.557.24,2.2a1.317,1.317,0,0,0,.92,1.116l.028.008a1.29,1.29,0,0,0,1.667-1.069l0-.035A24.06,24.06,0,0,0,31.263,12.77" fill="#221f20"/>
      </g>
    </g>
  </g>
</svg>
