<svg xmlns="http://www.w3.org/2000/svg" xmlns:xlink="http://www.w3.org/1999/xlink" width="220" height="220" viewBox="0 0 220 220">
  <defs>
    <clipPath id="clip-path">
      <rect id="Прямоугольник_1115" data-name="Прямоугольник 1115" width="220" height="220" fill="none"/>
    </clipPath>
  </defs>
  <g id="Сгруппировать_853" data-name="Сгруппировать 853" clip-path="url(#clip-path)">
    <g id="Сгруппировать_863" data-name="Сгруппировать 863" transform="translate(0 40)">
      <path id="Контур_1795" data-name="Контур 1795" d="M220,146.9c0,11.534-49.249,20.884-110,20.884S0,158.434,0,146.9s49.249-20.884,110-20.884,110,9.35,110,20.884" transform="translate(0 -27.003)" fill="#e3e3e3" fill-rule="evenodd"/>
      <g id="Сгруппировать_864" data-name="Сгруппировать 864" transform="translate(-3)">
        <path id="Контур_1794" data-name="Контур 1794" d="M182,46.383h0a13.555,13.555,0,0,0-9.989-16.362L168.82,43.2a13.555,13.555,0,0,0,26.351,6.372l3.186-13.175A13.555,13.555,0,0,0,182,46.383" transform="translate(-36.094 -6.433)" fill="#c5934f"/>
        <path id="Контур_1796" data-name="Контур 1796" d="M165.767,50,152.624,38.459a1.886,1.886,0,0,0-2.662.174L138.423,51.776a1.888,1.888,0,0,0,.174,2.661l13.144,11.537a1.886,1.886,0,0,0,2.66-.172L165.94,52.659A1.885,1.885,0,0,0,165.768,50h0" transform="translate(-29.562 -8.141)" fill="#6584ee"/>
        <path id="Контур_1797" data-name="Контур 1797" d="M187.077,124.527H81.586a3.522,3.522,0,0,1-3.522-3.522V42.51a3.522,3.522,0,0,1,3.522-3.522h23.675a3.522,3.522,0,0,1,3.522,3.522v5.528a3.521,3.521,0,0,0,3.522,3.522h74.772a3.522,3.522,0,0,1,3.522,3.522v65.924a3.522,3.522,0,0,1-3.522,3.522" transform="translate(-16.728 -8.354)" fill="#161615"/>
        <path id="Контур_1798" data-name="Контур 1798" d="M213.4,51.54a5.117,5.117,0,0,0,1.868-6.992c-.014-.025-.028-.048-.043-.072s-.031-.053-.047-.079l5.856.727a8.379,8.379,0,0,0-7.333-9.3l-.735,5.889a5.263,5.263,0,0,0-7.165.273L190.513,61.539Z" transform="translate(-40.824 -7.676)" fill="#34b866"/>
        <path id="Контур_1799" data-name="Контур 1799" d="M134.826,39.205h0a6.2,6.2,0,0,1,7.192,9.019,6.2,6.2,0,0,1-2.567,11.248,6.2,6.2,0,0,1-10.394,5,6.2,6.2,0,0,1-10.393-5.012,6.2,6.2,0,0,1-2.567-11.24,6.2,6.2,0,0,1,7.192-9.019,6.2,6.2,0,0,1,11.537,0" transform="translate(-24.301 -7.56)" fill="#f47fbd"/>
        <path id="Контур_1800" data-name="Контур 1800" d="M177.4,124.527H71.909a3.522,3.522,0,0,1-3.522-3.522V42.51a3.522,3.522,0,0,1,3.522-3.522H95.585a3.522,3.522,0,0,1,3.522,3.522v5.528a3.521,3.521,0,0,0,3.522,3.522H177.4a3.522,3.522,0,0,1,3.522,3.522v65.924a3.522,3.522,0,0,1-3.522,3.522" transform="translate(-14.654 -8.354)" fill="#221f20"/>
        <path id="Контур_1801" data-name="Контур 1801" d="M188.077,92.183c.868,2.645-3.247,6.37-9.191,8.32s-11.467,1.387-12.334-1.257,3.247-6.37,9.192-8.321,11.466-1.387,12.334,1.258" transform="translate(-33.41 -16.36)" fill="#ea2838" fill-rule="evenodd"/>
        <path id="Контур_1802" data-name="Контур 1802" d="M87.547,90.925c5.944,1.95,10.059,5.675,9.191,8.32s-6.39,3.209-12.334,1.258-10.059-5.675-9.191-8.32,6.39-3.209,12.334-1.258" transform="translate(-9.875 -16.36)" fill="#ea2838" fill-rule="evenodd"/>
        <path id="Контур_1803" data-name="Контур 1803" d="M145.374,103.877l2.041,1.22a15.459,15.459,0,0,1-26.012.581l1.982-1.313a13.083,13.083,0,0,0,21.989-.488" transform="translate(-24.015 -18.259)" fill="#fff"/>
        <path id="Контур_1804" data-name="Контур 1804" d="M155.25,83.209l-.854-1.673,5.23-5.23,1.4,1.4-3.076,3.076,13.309-2.134.312,1.951Z" transform="translate(-31.085 -12.351)" fill="#fff"/>
        <path id="Контур_1805" data-name="Контур 1805" d="M116.771,83.209l-16.315-2.615.312-1.951,13.308,2.134L111,77.7l1.4-1.4,5.23,5.23Z" transform="translate(-19.526 -12.351)" fill="#fff"/>
        <path id="Контур_1806" data-name="Контур 1806" d="M97.863,25.065l-1.281-.273c-4.546-.972-7.549-1.615-8.817-3.8a3.637,3.637,0,0,1,1.264-4.987l.069-.04a4.016,4.016,0,0,1,3.3-.307,4.019,4.019,0,0,1,1.9-2.718A3.638,3.638,0,0,1,99.3,14.205l.04.068c1.267,2.183.338,5.109-1.072,9.542l-.4,1.248Z" transform="translate(-18.697 -2.663)" fill="#ea2838"/>
        <path id="Контур_1807" data-name="Контур 1807" d="M189.877,17.989l-.829-1.644c-2.941-5.839-4.883-9.7-3.607-13.012A5.118,5.118,0,0,1,192.022.323l.1.04a5.648,5.648,0,0,1,3.248,3.352,5.649,5.649,0,0,1,4.658-.308,5.116,5.116,0,0,1,3.009,6.58c-.013.035-.027.07-.04.1-1.275,3.313-5.3,4.873-11.4,7.235l-1.717.665Z" transform="translate(-39.652)" fill="#ea2838"/>
      </g>
    </g>
  </g>
</svg>
