<svg xmlns="http://www.w3.org/2000/svg" xmlns:xlink="http://www.w3.org/1999/xlink" width="24" height="24" viewBox="0 0 24 24">
  <defs>
    <clipPath id="clip-path">
      <rect id="Прямоугольник_984" data-name="Прямоугольник 984" width="24" height="24" fill="#ea2838"/>
    </clipPath>
    <clipPath id="clip-path-2">
      <rect id="Прямоугольник_984-2" data-name="Прямоугольник 984" width="20" height="20" fill="#f3602b"/>
    </clipPath>
  </defs>
  <g id="Fire" clip-path="url(#clip-path)">
    <g id="icon" transform="translate(2 2)">
      <g id="Fire-2" data-name="Fire" clip-path="url(#clip-path-2)">
        <g id="Сгруппировать_619" data-name="Сгруппировать 619" transform="translate(0 0.666)">
          <path id="Контур_1640" data-name="Контур 1640" d="M12.839,10.421h.727a4.837,4.837,0,0,1,3.231-3.3,4.882,4.882,0,0,0-2.7-1.5,2.888,2.888,0,1,0-1.8,0,4.882,4.882,0,0,0-2.7,1.5,4.838,4.838,0,0,1,3.231,3.3" transform="translate(-3.203)" fill="#f3602b"/>
          <path id="Контур_1641" data-name="Контур 1641" d="M20.92,18.91a2.954,2.954,0,1,0-1.84,0A5,5,0,0,0,15,23.822H25a5,5,0,0,0-4.08-4.912" transform="translate(-5 -4.388)" fill="#f3602b"/>
          <path id="Контур_1642" data-name="Контур 1642" d="M5.92,18.91a2.954,2.954,0,1,0-1.84,0A5,5,0,0,0,0,23.822H10A5,5,0,0,0,5.92,18.91" transform="translate(0 -4.388)" fill="#f3602b"/>
        </g>
      </g>
    </g>
  </g>
</svg>
