<svg xmlns="http://www.w3.org/2000/svg" xmlns:xlink="http://www.w3.org/1999/xlink" width="24" height="24" viewBox="0 0 24 24">
  <defs>
    <clipPath id="clip-path">
      <rect id="Прямоугольник_1074" data-name="Прямоугольник 1074" width="24" height="24" transform="translate(1294 1228)" fill="#fff" stroke="#707070" stroke-width="1"/>
    </clipPath>
  </defs>
  <g id="Icon" transform="translate(-1294 -1228)" clip-path="url(#clip-path)">
    <g id="Icon_ionic-ios-share-alt" data-name="Icon ionic-ios-share-alt" transform="translate(1289.498 1223.25)" fill="none">
      <path d="M28.289,15.148,19.472,6.9a.451.451,0,0,0-.35-.15c-.275.012-.625.206-.625.5v4.137a.267.267,0,0,1-.225.256c-8.767,1.343-12.46,7.9-13.766,14.716-.05.269.312.519.481.306,3.2-4.03,7.092-6.661,13.247-6.711a.309.309,0,0,1,.262.3v4.062a.536.536,0,0,0,.906.331l8.88-8.392a.69.69,0,0,0,.219-.525A.837.837,0,0,0,28.289,15.148Z" stroke="none"/>
      <path d="M 19.99745559692383 9.445270538330078 L 19.99745559692383 11.38653564453125 C 19.99745559692383 12.24976539611816 19.35156631469727 12.99762535095215 18.49971389770508 13.12542724609375 C 16.58095550537109 13.41946601867676 14.84788513183594 14.00125694274902 13.34865570068359 14.85465621948242 C 11.98258590698242 15.63224601745605 10.77221488952637 16.65745544433594 9.751165390014648 17.90179634094238 C 8.755273818969727 19.11547088623047 7.923858642578125 20.54834365844727 7.262550354003906 22.18739891052246 C 10.37188911437988 19.66550254821777 13.89081382751465 18.48883819580078 18.22283554077148 18.45365524291992 L 18.23501586914062 18.45360565185547 C 19.19035530090332 18.45360565185547 19.99745559692383 19.27788543701172 19.99745559692383 20.25355529785156 L 19.99745559692383 22.02119445800781 L 26.68457984924316 15.70113372802734 L 19.99745559692383 9.445270538330078 M 19.14370727539062 6.749465942382812 C 19.27613639831543 6.749469757080078 19.37139511108398 6.804960250854492 19.47227478027344 6.89991569519043 L 28.2892951965332 15.14830589294434 C 28.44551467895508 15.29826545715332 28.49550437927246 15.52947616577148 28.50175476074219 15.72943687438965 C 28.49550437927246 15.92939567565918 28.44551467895508 16.10436630249023 28.28304481506348 16.25433540344238 L 19.40352630615234 24.64644622802734 C 19.07859802246094 24.94638442993164 18.49745559692383 24.75267791748047 18.49745559692383 24.31525611877441 L 18.49745559692383 20.25355529785156 C 18.49745559692383 20.1160774230957 18.37248611450195 19.95360565185547 18.23501586914062 19.95360565185547 C 12.07996559143066 20.00359725952148 8.186975479125977 22.63433647155762 4.987594604492188 26.66479682922363 C 4.818891525268555 26.87725257873535 4.456453323364258 26.6273078918457 4.506444931030273 26.35860633850098 C 5.812435150146484 19.54744720458984 9.505464553833008 12.98621559143066 18.27250480651855 11.64273643493652 C 18.39747619628906 11.62398719787598 18.49745559692383 11.51151657104492 18.49745559692383 11.38653564453125 L 18.49745559692383 7.249845504760742 C 18.49745559692383 6.956155776977539 18.84738540649414 6.762435913085938 19.12233543395996 6.749937057495117 C 19.12957191467285 6.749622344970703 19.13668632507324 6.749465942382812 19.14370727539062 6.749465942382812 Z" stroke="none" fill="#292928"/>
    </g>
  </g>
</svg>
