<svg id="поделиться" xmlns="http://www.w3.org/2000/svg" xmlns:xlink="http://www.w3.org/1999/xlink" width="18" height="18" viewBox="0 0 18 18">
  <defs>
    <clipPath id="clip-path">
      <rect id="Прямоугольник_1074" data-name="Прямоугольник 1074" width="18" height="18" transform="translate(1294 1228)" fill="#161615" stroke="#707070" stroke-width="1"/>
    </clipPath>
  </defs>
  <g id="Icon" transform="translate(-1294 -1228)" clip-path="url(#clip-path)">
    <path id="Icon_ionic-ios-share-alt" data-name="Icon ionic-ios-share-alt" d="M21.351,12.7,15.106,6.856a.319.319,0,0,0-.248-.106c-.195.009-.443.146-.443.354v2.93a.189.189,0,0,1-.159.181c-6.21.952-8.826,5.6-9.751,10.424-.035.19.221.367.341.217A11.288,11.288,0,0,1,14.229,16.1a.219.219,0,0,1,.186.212v2.877a.38.38,0,0,0,.642.235l6.29-5.944a.489.489,0,0,0,.155-.372A.593.593,0,0,0,21.351,12.7Z" transform="translate(1290.498 1223.25)" fill="#221f20"/>
  </g>
</svg>
