<svg id="_1" data-name="1" xmlns="http://www.w3.org/2000/svg" xmlns:xlink="http://www.w3.org/1999/xlink" width="22.274" height="20.221" viewBox="0 0 22.274 20.221">
  <defs>
    <clipPath id="clip-path">
      <rect id="Прямоугольник_1055" data-name="Прямоугольник 1055" width="22.274" height="20.221" fill="none"/>
    </clipPath>
  </defs>
  <g id="Сгруппировать_744" data-name="Сгруппировать 744" clip-path="url(#clip-path)">
    <path id="Контур_1734" data-name="Контур 1734" d="M22.235,7.44,21,3.105a1.013,1.013,0,0,0-.255-.434,1,1,0,0,0-1.415,0l-.65.65A10.238,10.238,0,0,0,2.005,5.591l1.336.682A8.737,8.737,0,0,1,17.615,4.385L16.232,5.768a1,1,0,0,0,.432,1.669L21,8.676A1,1,0,0,0,22.235,7.44" transform="translate(0 0)" fill="#221f20"/>
    <path id="Контур_1735" data-name="Контур 1735" d="M18.873,14.063A8.736,8.736,0,0,1,4.659,15.836l1.383-1.383a1,1,0,0,0-.433-1.669L1.275,11.545A1,1,0,0,0,.039,12.782l1.238,4.335a1,1,0,0,0,1.669.432L3.6,16.9a10.237,10.237,0,0,0,16.6-2.132Z" transform="translate(0 0)" fill="#221f20"/>
  </g>
</svg>
