<svg xmlns="http://www.w3.org/2000/svg" xmlns:xlink="http://www.w3.org/1999/xlink" width="20" height="20" viewBox="0 0 20 20">
  <defs>
    <clipPath id="clip-path">
      <rect id="Прямоугольник_1077" data-name="Прямоугольник 1077" width="20" height="20" transform="translate(10 10)" fill="#0084c6" stroke="#707070" stroke-width="1"/>
    </clipPath>
  </defs>
  <g id="twitter" transform="translate(-10 -10)" clip-path="url(#clip-path)">
    <path id="Контур_1740" data-name="Контур 1740" d="M20,49.924a8.549,8.549,0,0,1-2.363.647,4.077,4.077,0,0,0,1.8-2.266,8.194,8.194,0,0,1-2.6.993,4.1,4.1,0,0,0-7.093,2.8,4.222,4.222,0,0,0,.1.935,11.606,11.606,0,0,1-8.451-4.289,4.1,4.1,0,0,0,1.26,5.48A4.049,4.049,0,0,1,.8,53.722v.045A4.119,4.119,0,0,0,4.085,57.8a4.092,4.092,0,0,1-1.075.135,3.626,3.626,0,0,1-.776-.07,4.139,4.139,0,0,0,3.831,2.856A8.239,8.239,0,0,1,.981,62.466,7.68,7.68,0,0,1,0,62.41a11.543,11.543,0,0,0,6.29,1.84A11.59,11.59,0,0,0,17.96,52.583c0-.181-.006-.356-.015-.53A8.18,8.18,0,0,0,20,49.924Z" transform="translate(10 -36)" fill="#00acee"/>
  </g>
</svg>
