<svg xmlns="http://www.w3.org/2000/svg" xmlns:xlink="http://www.w3.org/1999/xlink" width="9.425" height="14" viewBox="0 0 9.425 14">
  <defs>
    <clipPath id="clip-path">
      <rect id="Прямоугольник_1171" data-name="Прямоугольник 1171" width="9.425" height="14" fill="#8f8e8e"/>
    </clipPath>
  </defs>
  <g id="Icon_material-delete" data-name="Icon material-delete" transform="translate(0 0)">
    <g id="Сгруппировать_1024" data-name="Сгруппировать 1024" transform="translate(0 0)" clip-path="url(#clip-path)">
      <path id="Контур_1850" data-name="Контур 1850" d="M0,14.8a1.575,1.575,0,0,0,1.571,1.57H7.855a1.575,1.575,0,0,0,1.57-1.57V6.389H0Z" transform="translate(0 -2.375)" fill="#8f8e8e"/>
      <path id="Контур_1851" data-name="Контур 1851" d="M7.035,1.9a2.37,2.37,0,0,0-4.645,0H0v.943H9.425V1.9ZM4.713.943A1.424,1.424,0,0,1,6.053,1.9H3.371A1.426,1.426,0,0,1,4.713.943" transform="translate(0 0)" fill="#8f8e8e"/>
    </g>
  </g>
</svg>
