<svg xmlns="http://www.w3.org/2000/svg" xmlns:xlink="http://www.w3.org/1999/xlink" width="20" height="20" viewBox="0 0 20 20">
  <defs>
    <clipPath id="clip-path">
      <rect id="Прямоугольник_1077" data-name="Прямоугольник 1077" width="20" height="20" transform="translate(10 10)" fill="#00a356" stroke="#707070" stroke-width="1"/>
    </clipPath>
  </defs>
  <g id="Icon_simple-whatsapp" data-name="Icon simple-whatsapp" transform="translate(-10 -10)" clip-path="url(#clip-path)">
    <path id="Icon_simple-whatsapp-2" data-name="Icon simple-whatsapp" d="M14.582,11.985c-.251-.125-1.472-.723-1.7-.8s-.394-.125-.561.125-.642.8-.787.968-.291.175-.538.063a6.763,6.763,0,0,1-2-1.238A7.56,7.56,0,0,1,7.61,9.373c-.145-.25-.016-.388.108-.512s.251-.288.376-.436a2.112,2.112,0,0,0,.248-.413.458.458,0,0,0-.021-.437c-.063-.125-.56-1.35-.768-1.838s-.406-.425-.56-.425S6.683,5.3,6.517,5.3a.939.939,0,0,0-.664.3,2.782,2.782,0,0,0-.871,2.063A4.876,4.876,0,0,0,6,10.223a11.112,11.112,0,0,0,4.25,3.738c.595.25,1.058.4,1.42.524a3.448,3.448,0,0,0,1.567.1,2.565,2.565,0,0,0,1.68-1.188,2.063,2.063,0,0,0,.15-1.187c-.062-.113-.225-.175-.475-.288m-4.538,6.2h-.013a8.336,8.336,0,0,1-4.213-1.15l-.3-.178L2.4,17.609l.838-3.037-.2-.312a8.265,8.265,0,0,1,12.873-10.2,8.157,8.157,0,0,1,2.424,5.825,8.275,8.275,0,0,1-8.279,8.238M17.1,2.874A10.118,10.118,0,0,0,10.038,0,9.908,9.908,0,0,0,1.413,14.865L0,20l5.279-1.377a10.052,10.052,0,0,0,4.758,1.206h.005A9.95,9.95,0,0,0,20,9.916a9.829,9.829,0,0,0-2.912-7.009" transform="translate(10 10)" fill="#00a356"/>
  </g>
</svg>
