<svg id="icon" xmlns="http://www.w3.org/2000/svg" xmlns:xlink="http://www.w3.org/1999/xlink" width="24" height="24" viewBox="0 0 24 24">
  <defs>
    <clipPath id="clip-path">
      <rect id="Прямоугольник_984" data-name="Прямоугольник 984" width="24" height="24" fill="#c5934f"/>
    </clipPath>
  </defs>
  <g id="Fire" clip-path="url(#clip-path)">
    <path id="Icon_awesome-star" data-name="Icon awesome-star" d="M10.368.665,7.927,5.615l-5.462.8A1.2,1.2,0,0,0,1.8,8.452L5.755,12.3l-.935,5.439A1.2,1.2,0,0,0,6.555,19l4.886-2.568L16.327,19a1.2,1.2,0,0,0,1.735-1.26L17.127,12.3l3.951-3.85a1.2,1.2,0,0,0-.662-2.041l-5.462-.8L12.514.665a1.2,1.2,0,0,0-2.146,0Z" transform="translate(0.559 2.001)" fill="#c5934f"/>
  </g>
</svg>
