<svg width="231" height="241" viewBox="0 0 231 241" fill="none" xmlns="http://www.w3.org/2000/svg">
<g clip-path="url(#clip0_58_167)">
<path d="M152.448 152.991C142.268 143.151 130.25 135.412 117.079 130.217C103.909 125.021 89.8443 122.471 75.6882 122.711C61.5321 122.951 47.5619 125.977 34.5753 131.616C21.5887 137.255 9.83998 145.397 6.55844e-09 155.577L77.5168 230.506C87.6964 240.346 99.7145 248.085 112.885 253.281C126.055 258.476 140.12 261.026 154.276 260.786C168.432 260.546 182.402 257.52 195.389 251.881C208.375 246.241 220.124 238.099 229.964 227.92C239.804 217.74 247.542 205.722 252.738 192.552C257.933 179.382 260.483 165.317 260.243 151.161C260.003 137.005 256.977 123.035 251.338 110.049C245.699 97.0621 237.557 85.3135 227.378 75.4735L149.859 0.542777C140.019 10.7225 132.281 22.7408 127.085 35.9113C121.89 49.0819 119.339 63.1468 119.58 77.303C119.82 91.4591 122.846 105.429 128.486 118.416C134.125 131.403 142.268 143.151 152.448 152.991Z" fill="black"/>
</g>
<defs>
<clipPath id="clip0_58_167">
<rect width="231" height="241" rx="30" fill="white"/>
</clipPath>
</defs>
</svg>
