<!-- svg спрайты -->
<svg xmlns="http://www.w3.org/2000/svg" display="none">

	<!-- logo -->
	<symbol id="logo" viewBox="0 0 220 57">
		<g id="Группа_масок_1" data-name="Группа масок 1" transform="translate(-250 -68)"
			clip-path="url(#clip-path)">
			<g id="Сгруппировать_563" data-name="Сгруппировать 563" transform="translate(250 69.009)">
				<g id="Сгруппировать_560" data-name="Сгруппировать 560">
					<path id="Контур_1557" data-name="Контур 1557"
						d="M421.751,30.462V24.913a5.55,5.55,0,0,0-5.55,5.549h0v5.549a5.55,5.55,0,0,0,5.55-5.549Z"
						transform="translate(-290.173 -17.369)" fill="#c5934f" />
					<path id="Контур_1558" data-name="Контур 1558"
						d="M391.746,30.462V24.913a5.549,5.549,0,0,1,5.549,5.549v5.549A5.549,5.549,0,0,1,391.746,30.462Z"
						transform="translate(-273.123 -17.369)" fill="#c5934f" />
					<path id="Контур_1559" data-name="Контур 1559"
						d="M406.749,0a5.541,5.541,0,0,0,0,9.6,5.541,5.541,0,0,0,0-9.6"
						transform="translate(-281.648)" fill="#c5934f" />
				</g>
				<g id="Сгруппировать_590" data-name="Сгруппировать 590">
					<path id="Контур_1561" data-name="Контур 1561"
						d="M185.4,77.837c0-3.941-.787-5.693-3.2-5.693-2.627,0-4.027,1.971-4.027,6.568V90.536h-6.131V67.765h5.911v3.722h.219s1.533-4.379,6.13-4.379c3.678,0,5.649,1.751,6.524,4.422l.044-.044h.219s1.97-4.379,6.568-4.379c5.693,0,7.225,4.16,7.225,9.414V90.535h-6.13v-12.7c0-3.941-.787-5.693-3.2-5.693-2.627,0-4.027,1.971-4.027,6.568V90.536H185.4Z"
						transform="translate(-119.946 -46.787)" fill="#221f20" />
					<path id="Контур_1562" data-name="Контур 1562"
						d="M399.244,92.051h-5.912V88h-.218a7.909,7.909,0,0,1-7.006,4.379c-6.349,0-8.1-4.16-8.1-9.414V69.282h6.13v12.37c0,3.941,1.095,5.693,3.941,5.693,3.284,0,5.036-1.971,5.036-6.568V69.282h6.13Z"
						transform="translate(-263.544 -48.303)" fill="#221f20" />
					<path id="Контур_1563" data-name="Контур 1563"
						d="M462.1,69.282h6.131v9.2l8.1-9.2h7.225l-8.582,8.889,9.02,13.881H476.5l-5.78-9.5-2.5,2.584v6.918H462.1Z"
						transform="translate(-322.172 -48.303)" fill="#221f20" />
					<path id="Контур_1564" data-name="Контур 1564"
						d="M553.235,67.112c7.488,0,11.6,5.386,11.6,12.041s-4.116,12.04-11.6,12.04-11.6-5.385-11.6-12.042,4.116-12.04,11.6-12.04m0,19.486c3.9,0,5.473-3.328,5.473-7.444s-1.577-7.444-5.473-7.444-5.473,3.328-5.473,7.444,1.577,7.444,5.473,7.444"
						transform="translate(-377.623 -46.79)" fill="#221f20" />
					<path id="Контур_1565" data-name="Контур 1565"
						d="M662.493,92.048H656.8V76.066h-.217l-5.036,15.982h-5.693l-5.036-15.982H640.6V92.048h-5.693V69.277h9.2l4.6,15.763,4.6-15.763h9.2Z"
						transform="translate(-442.654 -48.3)" fill="#221f20" />
					<path id="Контур_1566" data-name="Контур 1566"
						d="M315.654,72.637a6.936,6.936,0,0,0-1.541-2.884,7.111,7.111,0,0,0-2.884-1.849,13.038,13.038,0,0,0-4.447-.66,35.618,35.618,0,0,0-5.116.351,21.079,21.079,0,0,0-2.951.7l.661,4.314A14.987,14.987,0,0,1,301.886,72a20.1,20.1,0,0,1,3.392-.264,6.3,6.3,0,0,1,2.267.352,3.519,3.519,0,0,1,2.223,2.465l0,.017a6.835,6.835,0,0,1,.216,1.714v.212a17.369,17.369,0,0,0-2.069-.374,16.483,16.483,0,0,0-1.85-.11,17.261,17.261,0,0,0-3.634.374,9.047,9.047,0,0,0-3.058,1.233,6.323,6.323,0,0,0-2.092,2.223,6.711,6.711,0,0,0-.77,3.346,7.939,7.939,0,0,0,.682,3.478,6.025,6.025,0,0,0,1.893,2.29,7.952,7.952,0,0,0,2.928,1.277,31.922,31.922,0,0,0,3.787.4h10.311V76.358a14.114,14.114,0,0,0-.462-3.721m-5.665,13.5a19.809,19.809,0,0,1-3.742.264,6.143,6.143,0,0,1-3.214-.726,2.816,2.816,0,0,1-1.189-2.619,2.769,2.769,0,0,1,.44-1.608,2.961,2.961,0,0,1,1.167-.991,5.553,5.553,0,0,1,1.629-.484,12.337,12.337,0,0,1,1.784-.132,11.956,11.956,0,0,1,1.849.132,10.367,10.367,0,0,1,1.277.264Z"
						transform="translate(-206.727 -46.879)" fill="#221f20" />
					<path id="Контур_1567" data-name="Контур 1567"
						d="M19.142,72.637a6.932,6.932,0,0,0-1.54-2.884A7.112,7.112,0,0,0,14.718,67.9a13.036,13.036,0,0,0-4.447-.66,35.614,35.614,0,0,0-5.116.351,21.076,21.076,0,0,0-2.951.7l.661,4.314A14.991,14.991,0,0,1,5.374,72a20.1,20.1,0,0,1,3.391-.264,6.3,6.3,0,0,1,2.267.352,3.519,3.519,0,0,1,2.223,2.465l0,.017a6.849,6.849,0,0,1,.216,1.714v.212a17.374,17.374,0,0,0-2.069-.374,16.478,16.478,0,0,0-1.849-.11,17.258,17.258,0,0,0-3.634.374,9.049,9.049,0,0,0-3.058,1.233A6.325,6.325,0,0,0,.775,79.841,6.714,6.714,0,0,0,0,83.187a7.939,7.939,0,0,0,.682,3.478,6.019,6.019,0,0,0,1.893,2.29,7.952,7.952,0,0,0,2.928,1.277,31.922,31.922,0,0,0,3.787.4H19.6V76.358a14.1,14.1,0,0,0-.463-3.721m-5.665,13.5a19.809,19.809,0,0,1-3.742.264,6.143,6.143,0,0,1-3.214-.726,2.816,2.816,0,0,1-1.189-2.619,2.769,2.769,0,0,1,.44-1.608,2.959,2.959,0,0,1,1.167-.991,5.55,5.55,0,0,1,1.629-.484,12.333,12.333,0,0,1,1.783-.132,11.961,11.961,0,0,1,1.849.132,10.362,10.362,0,0,1,1.277.264Z"
						transform="translate(0 -46.879)" fill="#221f20" />
					<path id="Контур_1560" data-name="Контур 1560"
						d="M88.115,69.282h6.919l8.188,22.771H96.653L91.4,75.895,86.144,92.051H79.927Z"
						transform="translate(-55.725 -48.303)" fill="#221f20" />
				</g>
			</g>
		</g>
	</symbol>

	<!-- Адрес в шапке -->
	<symbol id="map-address" viewBox="0 0 18 18">
		<g id="geo" transform="translate(-232 -32)" clip-path="url(#clip-path)">
			<path id="Icon_material-location-on" data-name="Icon material-location-on"
				d="M13.8,3A6.3,6.3,0,0,0,7.5,9.3c0,4.725,6.3,11.7,6.3,11.7s6.3-6.975,6.3-11.7A6.3,6.3,0,0,0,13.8,3Zm0,8.55A2.25,2.25,0,1,1,16.05,9.3,2.251,2.251,0,0,1,13.8,11.55Z"
				transform="translate(227.5 29)" fill="#221f20" />
		</g>
	</symbol>

	<!-- Телефон в шапке -->
	<symbol id="phone-icon" viewBox="0 0 18.002 17.999">
		<g id="Сгруппировать_709" data-name="Сгруппировать 709" clip-path="url(#clip-path)">
			<path id="Контур_1712" data-name="Контур 1712"
				d="M3.938,18H5.063a.565.565,0,0,0,.563-.562v-6.75a.565.565,0,0,0-.563-.562H3.938l-.562.04a3.9,3.9,0,0,0-1.543.569,7.312,7.312,0,1,1,14.336,0,3.922,3.922,0,0,0-1.543-.57l-.563-.039H12.938a.564.564,0,0,0-.562.562v6.75a.565.565,0,0,0,.562.563h1.125l.563-.041a3.938,3.938,0,0,0,2.836-5.887A8.976,8.976,0,0,0,18,9V9A9,9,0,1,0,.54,12.071a3.938,3.938,0,0,0,2.836,5.886Z" />
		</g>
	</symbol>

	<!-- Маркер карты, золотой -->
	<symbol id="map-gold" viewBox="0 0 30 30">
		<g id="Icon_material-email" data-name="Icon material-email" transform="translate(-20 -8)"
			clip-path="url(#clip-path)">
			<path id="Icon_material-location-on" data-name="Icon material-location-on"
				d="M17.3,3a9.793,9.793,0,0,0-9.8,9.8c0,7.35,9.8,18.2,9.8,18.2s9.8-10.85,9.8-18.2A9.793,9.793,0,0,0,17.3,3Zm0,13.3a3.5,3.5,0,1,1,3.5-3.5A3.5,3.5,0,0,1,17.3,16.3Z"
				transform="translate(18 6)" fill="#c5934f" />
		</g>
	</symbol>

	<!-- Иконка времени, золотая -->
	<symbol id="time-gold" viewBox="0 0 30 30">
		<g id="Icon_material-email" data-name="Icon material-email" transform="translate(-20 -8)"
			clip-path="url(#clip-path)">
			<path id="Icon_material-watch-later" data-name="Icon material-watch-later"
				d="M17,3A14,14,0,1,0,31,17,14.041,14.041,0,0,0,17,3Zm5.88,19.88L15.6,18.4V10h2.1v7.28L24,21.06Z"
				transform="translate(18 6)" fill="#c5934f" />
		</g>
	</symbol>

	<!-- Иконка наушников, золотая -->
	<symbol id="headphones-gold" viewBox="0 0 30 30">
		<g id="Icon_material-email" data-name="Icon material-email" transform="translate(-20 -8)"
			clip-path="url(#clip-path)">
			<path id="Контур_1841" data-name="Контур 1841"
				d="M6.126,28h1.75a.878.878,0,0,0,.876-.874v-10.5a.878.878,0,0,0-.876-.874v0H6.126l-.874.062a6.074,6.074,0,0,0-2.4.885,11.375,11.375,0,1,1,22.3,0,6.1,6.1,0,0,0-2.4-.887l-.876-.061h-1.75a.877.877,0,0,0-.874.874v10.5a.878.878,0,0,0,.874.876h1.75l.876-.064a6.126,6.126,0,0,0,4.412-9.158A13.963,13.963,0,0,0,28,14l0,0A14,14,0,1,0,.84,18.778a6.126,6.126,0,0,0,4.412,9.157Z"
				transform="translate(20.998 9)" fill="#c5934f" />
		</g>
	</symbol>

	<!-- Иконка мобильника, золотая -->
	<symbol id="mobile-gold" viewBox="0 0 30 30">
		<g id="Icon_material-email" data-name="Icon material-email" transform="translate(-20 -8)"
			clip-path="url(#clip-path)">
			<path id="Icon_awesome-mobile" data-name="Icon awesome-mobile"
				d="M15.937-1,2.813,0A2.813,2.813,0,0,0,0,2.813V27.188A2.813,2.813,0,0,0,2.813,30H15.937a2.813,2.813,0,0,0,2.813-2.813V2.813C18.75,1.26,17.49-1,15.937-1ZM9.375,27.125A1.875,1.875,0,1,1,11.25,25.25,1.873,1.873,0,0,1,9.375,27.125Z"
				transform="translate(25.625 8)" fill="#c5934f" />
		</g>
	</symbol>

	<!-- Иконка оптовики, золотая -->
	<symbol id="opt-gold" viewBox="0 0 40 40">
		<g id="opt" transform="translate(-15 -3)" clip-path="url(#clip-path)">
			<g id="Сгруппировать_681" data-name="Сгруппировать 681" transform="translate(20 12.5)">
				<path id="Контур_1693" data-name="Контур 1693"
					d="M29.379,98.03,20.447,89.1a.65.65,0,0,0-.918,0l-2.411,2.411a5.2,5.2,0,0,1-7.36-.013,2.919,2.919,0,0,1,.013-4.119l3.985-3.985.05-.049H.974A.974.974,0,0,0,0,84.316v9.741a.974.974,0,0,0,.974.974H2.961l9.223,9.223h0l.906.906a2.07,2.07,0,0,0,2.927,0h0a2.07,2.07,0,0,0,0-2.925l1.836,1.836a2.07,2.07,0,0,0,2.927-2.927l1.377,1.377a2.07,2.07,0,1,0,2.927-2.927l1.378,1.378a2.07,2.07,0,1,0,2.927-2.927Z"
					transform="translate(0 -83.342)" fill="#c5934f" />
				<path id="Контур_1694" data-name="Контур 1694"
					d="M182.684,84.025a.683.683,0,0,0-.683-.683H171.686a3.414,3.414,0,0,0-2.414,1L164.5,88.848a.683.683,0,0,0,0,.966,2.276,2.276,0,0,0,3.218,0l3.672-3.4a2.8,2.8,0,0,1,3.29,0l5.778,5.778h0l.218-.654H182a.683.683,0,0,0,.683-.683Z"
					transform="translate(-152.685 -83.342)" fill="#c5934f" />
			</g>
		</g>
	</symbol>

	<!-- Иконка конверт, золотая -->
	<symbol id="messege-gold" viewBox="0 0 30 30">
		<g id="Icon_material-email" data-name="Icon material-email" transform="translate(-20 -8)"
			clip-path="url(#clip-path)">
			<path id="Icon_material-email-2" data-name="Icon material-email"
				d="M28.65,6H5.85A2.846,2.846,0,0,0,3.014,8.85L3,25.95A2.858,2.858,0,0,0,5.85,28.8h22.8a2.858,2.858,0,0,0,2.85-2.85V8.85A2.858,2.858,0,0,0,28.65,6Zm0,5.7-11.4,7.125L5.85,11.7V8.85l11.4,7.125L28.65,8.85Z"
				transform="translate(17.75 5.6)" fill="#c5934f" />
		</g>
	</symbol>

	<!-- Иконка pdf -->
	<symbol id="pdf-icon" viewBox="0 0 45.21 50">
		<g id="Сгруппировать_42" data-name="Сгруппировать 42" clip-path="url(#clip-path)">
			<path id="Контур_1181" data-name="Контур 1181"
				d="M34.541,29.675H0V11.5A2.662,2.662,0,0,1,2.662,8.842H39.915a1.818,1.818,0,0,1,1.75,2.313l-4.74,16.718a2.478,2.478,0,0,1-2.383,1.8"
				transform="translate(0 5.895)" fill="#ea2838" />
			<path id="Контур_1182" data-name="Контур 1182" d="M3.543,25.172v-3.83H0Z"
				transform="translate(0 14.228)" fill="#b01f46" />
			<path id="Контур_1183" data-name="Контур 1183"
				d="M4.48,25.681V12.819H6.257v1.517h.152c.089-.157.17-.291.239-.4a3.215,3.215,0,0,1,.344-.421,2.335,2.335,0,0,1,.5-.418,3.013,3.013,0,0,1,.685-.28A3.334,3.334,0,0,1,9.1,12.7a3.725,3.725,0,0,1,1.567.33,3.622,3.622,0,0,1,1.247.937,4.4,4.4,0,0,1,.819,1.524,6.573,6.573,0,0,1,.294,2.027,5.337,5.337,0,0,1-1.09,3.535,3.5,3.5,0,0,1-2.819,1.306,3.254,3.254,0,0,1-.9-.118,2.991,2.991,0,0,1-.687-.28,2.431,2.431,0,0,1-.51-.41,3.728,3.728,0,0,1-.355-.425,4.706,4.706,0,0,1-.248-.405H6.3v4.962ZM6.264,17.5A4.051,4.051,0,0,0,6.908,19.9a2.087,2.087,0,0,0,1.8.9,2.161,2.161,0,0,0,1.361-.439,2.577,2.577,0,0,0,.844-1.178,4.865,4.865,0,0,0,.273-1.69,4.707,4.707,0,0,0-.271-1.668,2.5,2.5,0,0,0-.837-1.154,2.195,2.195,0,0,0-1.37-.428,2.094,2.094,0,0,0-1.8.876A3.963,3.963,0,0,0,6.264,17.5"
				transform="translate(2.987 8.277)" fill="#fff" />
			<path id="Контур_1184" data-name="Контур 1184"
				d="M14.092,23.675a3.682,3.682,0,0,1-1.568-.335,3.57,3.57,0,0,1-1.238-.947,4.42,4.42,0,0,1-.812-1.529,6.725,6.725,0,0,1-.291-2.031,6.573,6.573,0,0,1,.294-2.027,4.348,4.348,0,0,1,.819-1.522,3.6,3.6,0,0,1,1.242-.939,3.725,3.725,0,0,1,1.567-.33,3.328,3.328,0,0,1,.919.121,3.061,3.061,0,0,1,.683.282,2.465,2.465,0,0,1,.5.416,3.019,3.019,0,0,1,.343.418c.068.107.148.241.243.4h.109V11.019h1.82V23.491H16.949V22.035H16.8a4.707,4.707,0,0,1-.248.405,3.927,3.927,0,0,1-.355.425,2.42,2.42,0,0,1-.51.41,2.992,2.992,0,0,1-.687.28,3.253,3.253,0,0,1-.9.12m.4-1.554a2.082,2.082,0,0,0,1.8-.9,4.064,4.064,0,0,0,.642-2.405A3.963,3.963,0,0,0,16.3,16.44a2.1,2.1,0,0,0-1.806-.876,2.192,2.192,0,0,0-1.363.428,2.488,2.488,0,0,0-.837,1.154,4.707,4.707,0,0,0-.271,1.668A4.865,4.865,0,0,0,12.3,20.5a2.6,2.6,0,0,0,.84,1.178,2.151,2.151,0,0,0,1.358.439"
				transform="translate(7.459 6.961)" fill="#fff" />
			<path id="Контур_1185" data-name="Контур 1185"
				d="M21.245,14.393v1.463H19.23v7.892H17.4V15.857H15.958V14.393H17.4V13.31a2.787,2.787,0,0,1,.227-1.149,2.168,2.168,0,0,1,.61-.824,2.782,2.782,0,0,1,.881-.482,3.345,3.345,0,0,1,1.058-.164,4.3,4.3,0,0,1,1.524.25l-.426,1.474a2.715,2.715,0,0,0-.815-.139,1.212,1.212,0,0,0-.942.319,1.4,1.4,0,0,0-.287.958v.84Z"
				transform="translate(11.989 6.703)" fill="#fff" />
		</g>
	</symbol>

	<!-- Иконка xlsx -->
	<symbol id="xlsx-icon" viewBox="0 0 45.209 50">
		<g id="Сгруппировать_871" data-name="Сгруппировать 871" clip-path="url(#clip-path)">
			<path id="Контур_1817" data-name="Контур 1817"
				d="M34.541,35.57H0V17.4a2.661,2.661,0,0,1,2.662-2.658H39.915a1.817,1.817,0,0,1,1.75,2.313l-4.74,16.718a2.478,2.478,0,0,1-2.383,1.8"
				fill="#34b866" />
			<path id="Контур_1818" data-name="Контур 1818" d="M3.543,39.4V35.57H0Z" fill="#227540" />
			<path id="Контур_1819" data-name="Контур 1819"
				d="M6.357,21.275l2.075,3.662,2.1-3.662h2L9.6,25.979l2.958,4.7h-2L8.432,27.166,6.321,30.681H4.311l2.927-4.7-2.889-4.7Z"
				fill="#fff" />
			<rect id="Прямоугольник_1122" data-name="Прямоугольник 1122" width="1.831" height="12.541"
				transform="translate(14.415 18.14)" fill="#fff" />
			<path id="Контур_1820" data-name="Контур 1820"
				d="M25.755,23.572l-1.66.293a1.886,1.886,0,0,0-.64-.9,1.948,1.948,0,0,0-1.24-.359,2.29,2.29,0,0,0-1.3.349,1.026,1.026,0,0,0-.515.888.924.924,0,0,0,.344.76,2.826,2.826,0,0,0,1.132.471l1.5.342a4.007,4.007,0,0,1,1.935.928,2.18,2.18,0,0,1,.637,1.621,2.518,2.518,0,0,1-1.072,2.093,4.46,4.46,0,0,1-2.774.814,4.5,4.5,0,0,1-2.581-.676,2.838,2.838,0,0,1-1.222-1.925L20.059,28a1.68,1.68,0,0,0,.681,1.044,2.324,2.324,0,0,0,1.34.352,2.506,2.506,0,0,0,1.43-.37,1.092,1.092,0,0,0,.548-.928q0-.9-1.328-1.194l-1.593-.349q-2.569-.57-2.571-2.614a2.414,2.414,0,0,1,1.013-2.015,4.2,4.2,0,0,1,2.617-.772,3.985,3.985,0,0,1,2.37.64,3.04,3.04,0,0,1,1.189,1.779"
				fill="#fff" />
			<path id="Контур_1821" data-name="Контур 1821"
				d="M29.393,21.275l2.075,3.662,2.1-3.662h2l-2.932,4.7,2.958,4.7h-2l-2.119-3.515-2.111,3.515h-2.01l2.927-4.7-2.889-4.7Z"
				fill="#fff" />
		</g>
	</symbol>

	<!-- Иконка doc -->
	<symbol id="doc-icon" viewBox="0 0 45.21 50">
		<g id="Сгруппировать_40" data-name="Сгруппировать 40" clip-path="url(#clip-path)">
			<path id="Контур_1173" data-name="Контур 1173"
				d="M34.541,29.675H0V11.5A2.662,2.662,0,0,1,2.662,8.842H39.915a1.818,1.818,0,0,1,1.75,2.313l-4.74,16.718a2.478,2.478,0,0,1-2.383,1.8"
				transform="translate(0 5.895)" fill="#46a5fc" />
			<path id="Контур_1174" data-name="Контур 1174" d="M3.543,25.172v-3.83H0Z"
				transform="translate(0 14.228)" fill="#0081b6" />
			<path id="Контур_1175" data-name="Контур 1175"
				d="M5.665,24.315a3.807,3.807,0,0,1-1.617-.345,3.7,3.7,0,0,1-1.278-.977,4.556,4.556,0,0,1-.836-1.576,6.913,6.913,0,0,1-.3-2.095,6.813,6.813,0,0,1,.3-2.091,4.509,4.509,0,0,1,.845-1.571,3.709,3.709,0,0,1,1.281-.966,3.817,3.817,0,0,1,1.615-.339,3.4,3.4,0,0,1,.948.125,3.072,3.072,0,0,1,.705.289,2.519,2.519,0,0,1,.52.429,3.393,3.393,0,0,1,.354.431c.069.11.151.248.248.414h.112V11.263h1.878V24.126H8.61v-1.5H8.454a4.81,4.81,0,0,1-.254.418,3.863,3.863,0,0,1-.367.436,2.462,2.462,0,0,1-.526.423,2.967,2.967,0,0,1-.709.289,3.377,3.377,0,0,1-.933.123m.414-1.6a2.149,2.149,0,0,0,1.856-.929A4.189,4.189,0,0,0,8.6,19.3a4.084,4.084,0,0,0-.657-2.449,2.159,2.159,0,0,0-1.862-.9,2.26,2.26,0,0,0-1.406.442,2.59,2.59,0,0,0-.864,1.19,4.894,4.894,0,0,0-.28,1.722,5,5,0,0,0,.284,1.742,2.679,2.679,0,0,0,.866,1.216,2.227,2.227,0,0,0,1.4.451"
				transform="translate(3.509 6.594)" fill="#fff" />
			<path id="Контур_1176" data-name="Контур 1176"
				d="M13.923,22.267a4.462,4.462,0,0,1-2.367.617,4.471,4.471,0,0,1-2.367-.617,4.071,4.071,0,0,1-1.576-1.75A5.848,5.848,0,0,1,7.06,17.91a5.221,5.221,0,0,1,1.229-3.622,4.174,4.174,0,0,1,3.266-1.367,4.172,4.172,0,0,1,3.266,1.367,5.2,5.2,0,0,1,1.231,3.622,5.848,5.848,0,0,1-.552,2.608,4.063,4.063,0,0,1-1.578,1.75m-2.36-.959a2.425,2.425,0,0,0,1.145-.269,2.205,2.205,0,0,0,.817-.742A3.651,3.651,0,0,0,14,19.219a5.518,5.518,0,0,0,0-2.626,3.74,3.74,0,0,0-.472-1.086,2.21,2.21,0,0,0-.817-.744,2.529,2.529,0,0,0-2.3,0,2.23,2.23,0,0,0-.819.744,3.6,3.6,0,0,0-.476,1.086,5.517,5.517,0,0,0,0,2.626A3.517,3.517,0,0,0,9.591,20.3a2.225,2.225,0,0,0,.819.742,2.444,2.444,0,0,0,1.153.269"
				transform="translate(8.955 8.028)" fill="#fff" />
			<path id="Контур_1177" data-name="Контур 1177"
				d="M16.766,22.886a4.441,4.441,0,0,1-2.4-.638A4.076,4.076,0,0,1,12.8,20.487a5.926,5.926,0,0,1-.533-2.576,5.863,5.863,0,0,1,.548-2.6,4.151,4.151,0,0,1,1.571-1.765,4.379,4.379,0,0,1,2.358-.63,4.2,4.2,0,0,1,2.738.888,3.351,3.351,0,0,1,1.244,2.352H18.9A2.064,2.064,0,0,0,16.779,14.5a2.293,2.293,0,0,0-1.9.912,3.874,3.874,0,0,0-.716,2.455,4.015,4.015,0,0,0,.711,2.5,2.273,2.273,0,0,0,1.9.925,2.2,2.2,0,0,0,1.378-.438,2.053,2.053,0,0,0,.744-1.22H20.73a3.453,3.453,0,0,1-1.222,2.343,4.078,4.078,0,0,1-2.742.9"
				transform="translate(14.297 8.027)" fill="#fff" />
		</g>
	</symbol>

	<!-- Иконка like -->
	<symbol id="like-icon" viewBox="0 0 16 16">
		<g id="Сгруппировать_791" data-name="Сгруппировать 791" clip-path="url(#clip-path-2)">
			<path id="Контур_1748" data-name="Контур 1748"
				d="M14.364,5.027H9.79L10.8,2.514A1.93,1.93,0,0,0,10.368.428,1.46,1.46,0,0,0,8.3.427a1.5,1.5,0,0,0-.157.186L5.489,4.333a12.237,12.237,0,0,1-1.32,1.559l-.336.336A2,2,0,0,0,0,7.029v6.4a2,2,0,0,0,3.832.8l.439.44a2.59,2.59,0,0,0,1.84.762H11.3a2.1,2.1,0,0,0,1.92-1.246L15.76,8.459A2.8,2.8,0,0,0,16,7.314V6.665a1.639,1.639,0,0,0-1.636-1.638"
				transform="translate(0 0)" fill="#221f20" />
		</g>
	</symbol>

	<!-- Иконка diselike -->
	<symbol id="diselike-icon" viewBox="0 0 16 16">
		<g id="Сгруппировать_791" data-name="Сгруппировать 791" clip-path="url(#clip-path-2)">
			<path id="Контур_1748" data-name="Контур 1748"
				d="M14.364,10.4H9.79L10.8,12.918A1.93,1.93,0,0,1,10.368,15,1.46,1.46,0,0,1,8.3,15a1.5,1.5,0,0,1-.157-.186L5.489,11.1a12.237,12.237,0,0,0-1.32-1.559L3.832,9.2A2,2,0,0,1,0,8.4V2a2,2,0,0,1,3.832-.8l.439-.44A2.59,2.59,0,0,1,6.112,0H11.3a2.1,2.1,0,0,1,1.92,1.246L15.76,6.972A2.8,2.8,0,0,1,16,8.118v.649A1.639,1.639,0,0,1,14.364,10.4"
				transform="translate(0 0)" fill="#221f20" />
		</g>
	</symbol>

	<!-- Иконка просмотры -->
	<symbol id="views-icon" viewBox="0 0 18 12.134">
		<path id="Icon_ionic-md-eye" data-name="Icon ionic-md-eye"
			d="M11.25,7.383a9.678,9.678,0,0,0-9,6.067,9.709,9.709,0,0,0,18,0A9.678,9.678,0,0,0,11.25,7.383Zm0,10.113a4.046,4.046,0,1,1,4.09-4.046A4.08,4.08,0,0,1,11.25,17.5Zm0-6.473A2.427,2.427,0,1,0,13.7,13.45,2.449,2.449,0,0,0,11.25,11.023Z"
			transform="translate(-2.25 -7.383)" fill="#8f8e8e" />
	</symbol>

	<!-- Закрыть popup -->
	<symbol id="popup-close" viewBox="0 0 15.414 15.414">
		<g id="delete" transform="translate(0.707 0.707)">
			<line id="Линия_23" data-name="Линия 23" x1="14" y1="14" fill="none" stroke="#8f8e8e"
				stroke-width="2" />
			<line id="Линия_24" data-name="Линия 24" y1="14" x2="14" fill="none" stroke="#8f8e8e"
				stroke-width="2" />
		</g>
	</symbol>

	<!-- Стрелка вниз -->
	<symbol id="arrow-bottom" viewBox="0 0 7.778 7">
		<path id="Next"
			d="M3.015,1.573a1,1,0,0,1,1.748,0L6.952,5.514A1,1,0,0,1,6.078,7H1.7A1,1,0,0,1,.825,5.514Z"
			transform="translate(7.778 7) rotate(180)" />
	</symbol>

	<!-- Избранное карточка -->
	<symbol id="favorites-product" viewBox="0 0 17.439 16">
		<g id="Icon_metro-favorite" data-name="Icon metro-favorite" transform="translate(-5.141 -6.427)"
			fill="none">
			<path
				d="M13.861,22.427,12.6,21.28C8.106,17.2,5.141,14.514,5.141,11.222a4.744,4.744,0,0,1,4.8-4.8,5.232,5.232,0,0,1,3.924,1.818,5.232,5.232,0,0,1,3.924-1.818,4.744,4.744,0,0,1,4.8,4.8c0,3.292-2.965,5.981-7.455,10.058l-1.264,1.147Z"
				stroke="none" />
			<path
				d="M 13.86074542999268 20.40176200866699 L 14.12203884124756 20.1647891998291 C 18.3120288848877 16.36123847961426 21.08009910583496 13.84846878051758 21.08009910583496 11.22238826751709 C 21.08009910583496 10.32208919525146 20.74279975891113 9.488968849182129 20.13033866882324 8.876499176025391 C 19.51786994934082 8.264039039611816 18.68474960327148 7.926738739013672 17.78444862365723 7.926738739013672 C 16.73347854614258 7.926738739013672 15.69289970397949 8.409988403320312 15.00088882446289 9.219438552856445 L 13.86074924468994 10.55306911468506 L 12.72060966491699 9.219438552856445 C 12.02859878540039 8.409988403320312 10.98801898956299 7.926738739013672 9.93704891204834 7.926738739013672 C 9.036739349365234 7.926738739013672 8.203619003295898 8.264039039611816 7.591159343719482 8.876499176025391 C 6.978699207305908 9.488958358764648 6.641399383544922 10.32207870483398 6.641399383544922 11.22238826751709 C 6.641399383544922 13.84847831726074 9.409489631652832 16.36126899719238 13.59951877593994 20.16484832763672 L 13.86074542999268 20.40176200866699 M 13.86074924468994 22.42673873901367 L 12.59643936157227 21.28013801574707 C 8.105978965759277 17.20383834838867 5.141399383544922 14.51393890380859 5.141399383544922 11.22238826751709 C 5.141399383544922 8.532458305358887 7.247119426727295 6.426738739013672 9.93704891204834 6.426738739013672 C 11.45420932769775 6.426738739013672 12.91032886505127 7.13300895690918 13.86074924468994 8.244718551635742 C 14.81116962432861 7.13300895690918 16.26727867126465 6.426738739013672 17.78444862365723 6.426738739013672 C 20.47436904907227 6.426738739013672 22.58009910583496 8.532458305358887 22.58009910583496 11.22238826751709 C 22.58009910583496 14.51393890380859 19.61550903320312 17.20383834838867 15.12505912780762 21.28013801574707 L 13.86074924468994 22.42673873901367 Z"
				stroke="none" fill="#221f20" />
		</g>
	</symbol>

	<!-- Звезда карточка -->
	<symbol id="rating-product" viewBox="0 0 14.627 14">
		<path id="Icon_awesome-star" data-name="Icon awesome-star"
			d="M7.97.486,6.185,4.106l-3.994.582a.875.875,0,0,0-.484,1.493L4.6,9l-.684,3.978a.874.874,0,0,0,1.269.921l3.573-1.878L12.328,13.9a.875.875,0,0,0,1.269-.921L12.913,9,15.8,6.181a.875.875,0,0,0-.484-1.493l-3.994-.582L9.54.486a.876.876,0,0,0-1.569,0Z"
			transform="translate(-1.441 0.001)" fill="#c5934f" />
	</symbol>

	<!-- Кнопка корзины в карточке -->
	<symbol id="bascet-btn-product" viewBox="0 0 19.488 18">
		<path id="Контур_1547" data-name="Контур 1547"
			d="M11.812,29.25a1.125,1.125,0,1,1-1.125-1.125A1.125,1.125,0,0,1,11.812,29.25Z"
			transform="translate(-5.443 -12.374)" fill="#fff" />
		<path id="Контур_1548" data-name="Контур 1548"
			d="M27.6,29.25a1.125,1.125,0,1,1-1.125-1.125A1.125,1.125,0,0,1,27.6,29.25Z"
			transform="translate(-10.708 -12.374)" fill="#fff" />
		<path id="Контур_1549" data-name="Контур 1549"
			d="M22.863,7.694a.276.276,0,0,0-.244-.2L7.356,6.021A.47.47,0,0,1,7,5.8a4.772,4.772,0,0,0-.572-.872c-.361-.441-1.04-.426-2.287-.436a.683.683,0,0,0-.764.661.67.67,0,0,0,.731.661A6.226,6.226,0,0,1,5.332,5.9c.22.066.4.426.464.74a.017.017,0,0,0,0,.014c.009.056.094.478.094.483l1.875,9.916a3.644,3.644,0,0,0,.68,1.673,1.87,1.87,0,0,0,1.542.759H21.077a.666.666,0,0,0,.675-.628.653.653,0,0,0-.656-.684H9.98a.545.545,0,0,1-.389-.131,2.1,2.1,0,0,1-.539-1.218l-.2-1.111a.026.026,0,0,1,.019-.028l13.014-2.2a.274.274,0,0,0,.23-.244l.75-5.427A.267.267,0,0,0,22.863,7.694Z"
			transform="translate(-3.382 -4.493)" fill="#fff" />
	</symbol>

	<!-- Стикер в банере на главной -->
	<symbol id="sticker-fire" viewBox="0 0 24 24">
		<g id="Fire" clip-path="url(#clip-path)">
			<path id="Контур_1673" data-name="Контур 1673"
				d="M84.387,7.589a.125.125,0,0,0-.154-.041.132.132,0,0,0-.085.142c.011.112.017.226.018.339a1.767,1.767,0,0,1-.517,1.262,1.7,1.7,0,0,1-1.23.5A1.747,1.747,0,0,1,80.9,8.839a2.707,2.707,0,0,1-.028-1.865,6.472,6.472,0,0,0,.165-1.231A6.784,6.784,0,0,0,77.685.02.133.133,0,0,0,77.612,0a.142.142,0,0,0-.078.025.126.126,0,0,0-.056.133c.479,2.541-.949,4.07-2.46,5.688-1.558,1.668-3.323,3.559-3.323,6.969A7.193,7.193,0,0,0,78.88,20a7.307,7.307,0,0,0,6.994-5.531A8.328,8.328,0,0,0,84.387,7.589Z"
				transform="translate(-66.695 2.002)" fill="#fff" />
		</g>
	</symbol>

	<!-- Иконка Показать еще -->
	<symbol id="show-more" viewBox="0 0 22.274 20.221">
		<g id="Сгруппировать_744" data-name="Сгруппировать 744" clip-path="url(#clip-path)">
			<path id="Контур_1734" data-name="Контур 1734"
				d="M22.235,7.44,21,3.105a1.013,1.013,0,0,0-.255-.434,1,1,0,0,0-1.415,0l-.65.65A10.238,10.238,0,0,0,2.005,5.591l1.336.682A8.737,8.737,0,0,1,17.615,4.385L16.232,5.768a1,1,0,0,0,.432,1.669L21,8.676A1,1,0,0,0,22.235,7.44"
				transform="translate(0 0)" />
			<path id="Контур_1735" data-name="Контур 1735"
				d="M18.873,14.063A8.736,8.736,0,0,1,4.659,15.836l1.383-1.383a1,1,0,0,0-.433-1.669L1.275,11.545A1,1,0,0,0,.039,12.782l1.238,4.335a1,1,0,0,0,1.669.432L3.6,16.9a10.237,10.237,0,0,0,16.6-2.132Z"
				transform="translate(0 0)" />
		</g>
	</symbol>

	<!-- Иконка Урны -->
	<symbol id="urn-icon" viewBox="0 0 9.425 14">
		<g id="Сгруппировать_1024" data-name="Сгруппировать 1024" transform="translate(0 0)"
			clip-path="url(#clip-path)">
			<path id="Контур_1850" data-name="Контур 1850"
				d="M0,14.8a1.575,1.575,0,0,0,1.571,1.57H7.855a1.575,1.575,0,0,0,1.57-1.57V6.389H0Z"
				transform="translate(0 -2.375)" />
			<path id="Контур_1851" data-name="Контур 1851"
				d="M7.035,1.9a2.37,2.37,0,0,0-4.645,0H0v.943H9.425V1.9ZM4.713.943A1.424,1.424,0,0,1,6.053,1.9H3.371A1.426,1.426,0,0,1,4.713.943"
				transform="translate(0 0)" />
		</g>
	</symbol>

</svg>