<!-- svg спрайты -->
<svg xmlns="http://www.w3.org/2000/svg" display="none">

  <!-- logo -->
  <symbol id="logo" viewBox="0 0 220 57">
    <g id="Группа_масок_1" data-name="Группа масок 1" transform="translate(-250 -68)" clip-path="url(#clip-path)">
      <g id="Сгруппировать_563" data-name="Сгруппировать 563" transform="translate(250 69.009)">
        <g id="Сгруппировать_560" data-name="Сгруппировать 560">
          <path id="Контур_1557" data-name="Контур 1557"
            d="M421.751,30.462V24.913a5.55,5.55,0,0,0-5.55,5.549h0v5.549a5.55,5.55,0,0,0,5.55-5.549Z"
            transform="translate(-290.173 -17.369)" fill="#c5934f" />
          <path id="Контур_1558" data-name="Контур 1558"
            d="M391.746,30.462V24.913a5.549,5.549,0,0,1,5.549,5.549v5.549A5.549,5.549,0,0,1,391.746,30.462Z"
            transform="translate(-273.123 -17.369)" fill="#c5934f" />
          <path id="Контур_1559" data-name="Контур 1559" d="M406.749,0a5.541,5.541,0,0,0,0,9.6,5.541,5.541,0,0,0,0-9.6"
            transform="translate(-281.648)" fill="#c5934f" />
        </g>
        <g id="Сгруппировать_590" data-name="Сгруппировать 590">
          <path id="Контур_1561" data-name="Контур 1561"
            d="M185.4,77.837c0-3.941-.787-5.693-3.2-5.693-2.627,0-4.027,1.971-4.027,6.568V90.536h-6.131V67.765h5.911v3.722h.219s1.533-4.379,6.13-4.379c3.678,0,5.649,1.751,6.524,4.422l.044-.044h.219s1.97-4.379,6.568-4.379c5.693,0,7.225,4.16,7.225,9.414V90.535h-6.13v-12.7c0-3.941-.787-5.693-3.2-5.693-2.627,0-4.027,1.971-4.027,6.568V90.536H185.4Z"
            transform="translate(-119.946 -46.787)" fill="#221f20" />
          <path id="Контур_1562" data-name="Контур 1562"
            d="M399.244,92.051h-5.912V88h-.218a7.909,7.909,0,0,1-7.006,4.379c-6.349,0-8.1-4.16-8.1-9.414V69.282h6.13v12.37c0,3.941,1.095,5.693,3.941,5.693,3.284,0,5.036-1.971,5.036-6.568V69.282h6.13Z"
            transform="translate(-263.544 -48.303)" fill="#221f20" />
          <path id="Контур_1563" data-name="Контур 1563"
            d="M462.1,69.282h6.131v9.2l8.1-9.2h7.225l-8.582,8.889,9.02,13.881H476.5l-5.78-9.5-2.5,2.584v6.918H462.1Z"
            transform="translate(-322.172 -48.303)" fill="#221f20" />
          <path id="Контур_1564" data-name="Контур 1564"
            d="M553.235,67.112c7.488,0,11.6,5.386,11.6,12.041s-4.116,12.04-11.6,12.04-11.6-5.385-11.6-12.042,4.116-12.04,11.6-12.04m0,19.486c3.9,0,5.473-3.328,5.473-7.444s-1.577-7.444-5.473-7.444-5.473,3.328-5.473,7.444,1.577,7.444,5.473,7.444"
            transform="translate(-377.623 -46.79)" fill="#221f20" />
          <path id="Контур_1565" data-name="Контур 1565"
            d="M662.493,92.048H656.8V76.066h-.217l-5.036,15.982h-5.693l-5.036-15.982H640.6V92.048h-5.693V69.277h9.2l4.6,15.763,4.6-15.763h9.2Z"
            transform="translate(-442.654 -48.3)" fill="#221f20" />
          <path id="Контур_1566" data-name="Контур 1566"
            d="M315.654,72.637a6.936,6.936,0,0,0-1.541-2.884,7.111,7.111,0,0,0-2.884-1.849,13.038,13.038,0,0,0-4.447-.66,35.618,35.618,0,0,0-5.116.351,21.079,21.079,0,0,0-2.951.7l.661,4.314A14.987,14.987,0,0,1,301.886,72a20.1,20.1,0,0,1,3.392-.264,6.3,6.3,0,0,1,2.267.352,3.519,3.519,0,0,1,2.223,2.465l0,.017a6.835,6.835,0,0,1,.216,1.714v.212a17.369,17.369,0,0,0-2.069-.374,16.483,16.483,0,0,0-1.85-.11,17.261,17.261,0,0,0-3.634.374,9.047,9.047,0,0,0-3.058,1.233,6.323,6.323,0,0,0-2.092,2.223,6.711,6.711,0,0,0-.77,3.346,7.939,7.939,0,0,0,.682,3.478,6.025,6.025,0,0,0,1.893,2.29,7.952,7.952,0,0,0,2.928,1.277,31.922,31.922,0,0,0,3.787.4h10.311V76.358a14.114,14.114,0,0,0-.462-3.721m-5.665,13.5a19.809,19.809,0,0,1-3.742.264,6.143,6.143,0,0,1-3.214-.726,2.816,2.816,0,0,1-1.189-2.619,2.769,2.769,0,0,1,.44-1.608,2.961,2.961,0,0,1,1.167-.991,5.553,5.553,0,0,1,1.629-.484,12.337,12.337,0,0,1,1.784-.132,11.956,11.956,0,0,1,1.849.132,10.367,10.367,0,0,1,1.277.264Z"
            transform="translate(-206.727 -46.879)" fill="#221f20" />
          <path id="Контур_1567" data-name="Контур 1567"
            d="M19.142,72.637a6.932,6.932,0,0,0-1.54-2.884A7.112,7.112,0,0,0,14.718,67.9a13.036,13.036,0,0,0-4.447-.66,35.614,35.614,0,0,0-5.116.351,21.076,21.076,0,0,0-2.951.7l.661,4.314A14.991,14.991,0,0,1,5.374,72a20.1,20.1,0,0,1,3.391-.264,6.3,6.3,0,0,1,2.267.352,3.519,3.519,0,0,1,2.223,2.465l0,.017a6.849,6.849,0,0,1,.216,1.714v.212a17.374,17.374,0,0,0-2.069-.374,16.478,16.478,0,0,0-1.849-.11,17.258,17.258,0,0,0-3.634.374,9.049,9.049,0,0,0-3.058,1.233A6.325,6.325,0,0,0,.775,79.841,6.714,6.714,0,0,0,0,83.187a7.939,7.939,0,0,0,.682,3.478,6.019,6.019,0,0,0,1.893,2.29,7.952,7.952,0,0,0,2.928,1.277,31.922,31.922,0,0,0,3.787.4H19.6V76.358a14.1,14.1,0,0,0-.463-3.721m-5.665,13.5a19.809,19.809,0,0,1-3.742.264,6.143,6.143,0,0,1-3.214-.726,2.816,2.816,0,0,1-1.189-2.619,2.769,2.769,0,0,1,.44-1.608,2.959,2.959,0,0,1,1.167-.991,5.55,5.55,0,0,1,1.629-.484,12.333,12.333,0,0,1,1.783-.132,11.961,11.961,0,0,1,1.849.132,10.362,10.362,0,0,1,1.277.264Z"
            transform="translate(0 -46.879)" fill="#221f20" />
          <path id="Контур_1560" data-name="Контур 1560"
            d="M88.115,69.282h6.919l8.188,22.771H96.653L91.4,75.895,86.144,92.051H79.927Z"
            transform="translate(-55.725 -48.303)" fill="#221f20" />
        </g>
      </g>
    </g>
  </symbol>

<!-- Адрес в шапке, черный -->
  <symbol id="map-address" viewBox="0 0 18 18">
    <g id="geo" transform="translate(-232 -32)" clip-path="url(#clip-path)">
      <path id="Icon_material-location-on" data-name="Icon material-location-on" d="M13.8,3A6.3,6.3,0,0,0,7.5,9.3c0,4.725,6.3,11.7,6.3,11.7s6.3-6.975,6.3-11.7A6.3,6.3,0,0,0,13.8,3Zm0,8.55A2.25,2.25,0,1,1,16.05,9.3,2.251,2.251,0,0,1,13.8,11.55Z" transform="translate(227.5 29)" fill="#221f20"/>
    </g>
  </symbol>

<!-- Маркер карты, золотой -->
  <symbol id="map-gold" viewBox="0 0 30 30">
    <g id="Icon_material-email" data-name="Icon material-email" transform="translate(-20 -8)" clip-path="url(#clip-path)">
      <path id="Icon_material-location-on" data-name="Icon material-location-on" d="M17.3,3a9.793,9.793,0,0,0-9.8,9.8c0,7.35,9.8,18.2,9.8,18.2s9.8-10.85,9.8-18.2A9.793,9.793,0,0,0,17.3,3Zm0,13.3a3.5,3.5,0,1,1,3.5-3.5A3.5,3.5,0,0,1,17.3,16.3Z" transform="translate(18 6)" fill="#c5934f"/>
    </g>
  </symbol>

<!-- Иконка времени, золотая -->
  <symbol id="time-gold" viewBox="0 0 30 30">
    <g id="Icon_material-email" data-name="Icon material-email" transform="translate(-20 -8)" clip-path="url(#clip-path)">
      <path id="Icon_material-watch-later" data-name="Icon material-watch-later" d="M17,3A14,14,0,1,0,31,17,14.041,14.041,0,0,0,17,3Zm5.88,19.88L15.6,18.4V10h2.1v7.28L24,21.06Z" transform="translate(18 6)" fill="#c5934f"/>
    </g>
  </symbol>

<!-- Иконка наушников, золотая -->
  <symbol id="headphones-gold" viewBox="0 0 30 30">
    <g id="Icon_material-email" data-name="Icon material-email" transform="translate(-20 -8)" clip-path="url(#clip-path)">
      <path id="Контур_1841" data-name="Контур 1841" d="M6.126,28h1.75a.878.878,0,0,0,.876-.874v-10.5a.878.878,0,0,0-.876-.874v0H6.126l-.874.062a6.074,6.074,0,0,0-2.4.885,11.375,11.375,0,1,1,22.3,0,6.1,6.1,0,0,0-2.4-.887l-.876-.061h-1.75a.877.877,0,0,0-.874.874v10.5a.878.878,0,0,0,.874.876h1.75l.876-.064a6.126,6.126,0,0,0,4.412-9.158A13.963,13.963,0,0,0,28,14l0,0A14,14,0,1,0,.84,18.778a6.126,6.126,0,0,0,4.412,9.157Z" transform="translate(20.998 9)" fill="#c5934f"/>
    </g>
  </symbol>

  <!-- Иконка мобильника, золотая -->
  <symbol id="mobile-gold" viewBox="0 0 30 30">
    <g id="Icon_material-email" data-name="Icon material-email" transform="translate(-20 -8)" clip-path="url(#clip-path)">
      <path id="Icon_awesome-mobile" data-name="Icon awesome-mobile" d="M15.937-1,2.813,0A2.813,2.813,0,0,0,0,2.813V27.188A2.813,2.813,0,0,0,2.813,30H15.937a2.813,2.813,0,0,0,2.813-2.813V2.813C18.75,1.26,17.49-1,15.937-1ZM9.375,27.125A1.875,1.875,0,1,1,11.25,25.25,1.873,1.873,0,0,1,9.375,27.125Z" transform="translate(25.625 8)" fill="#c5934f"/>
    </g>
  </symbol>

    <!-- Иконка оптовики, золотая -->
  <symbol id="opt-gold" viewBox="0 0 40 40">
  <g id="opt" transform="translate(-15 -3)" clip-path="url(#clip-path)">
    <g id="Сгруппировать_681" data-name="Сгруппировать 681" transform="translate(20 12.5)">
      <path id="Контур_1693" data-name="Контур 1693" d="M29.379,98.03,20.447,89.1a.65.65,0,0,0-.918,0l-2.411,2.411a5.2,5.2,0,0,1-7.36-.013,2.919,2.919,0,0,1,.013-4.119l3.985-3.985.05-.049H.974A.974.974,0,0,0,0,84.316v9.741a.974.974,0,0,0,.974.974H2.961l9.223,9.223h0l.906.906a2.07,2.07,0,0,0,2.927,0h0a2.07,2.07,0,0,0,0-2.925l1.836,1.836a2.07,2.07,0,0,0,2.927-2.927l1.377,1.377a2.07,2.07,0,1,0,2.927-2.927l1.378,1.378a2.07,2.07,0,1,0,2.927-2.927Z" transform="translate(0 -83.342)" fill="#c5934f"/>
      <path id="Контур_1694" data-name="Контур 1694" d="M182.684,84.025a.683.683,0,0,0-.683-.683H171.686a3.414,3.414,0,0,0-2.414,1L164.5,88.848a.683.683,0,0,0,0,.966,2.276,2.276,0,0,0,3.218,0l3.672-3.4a2.8,2.8,0,0,1,3.29,0l5.778,5.778h0l.218-.654H182a.683.683,0,0,0,.683-.683Z" transform="translate(-152.685 -83.342)" fill="#c5934f"/>
    </g>
  </g>
  </symbol>

    <!-- Иконка мобильника, золотая -->
  <symbol id="messege-gold" viewBox="0 0 30 30">
    <g id="Icon_material-email" data-name="Icon material-email" transform="translate(-20 -8)" clip-path="url(#clip-path)">
      <path id="Icon_awesome-mobile" data-name="Icon awesome-mobile" d="M15.937-1,2.813,0A2.813,2.813,0,0,0,0,2.813V27.188A2.813,2.813,0,0,0,2.813,30H15.937a2.813,2.813,0,0,0,2.813-2.813V2.813C18.75,1.26,17.49-1,15.937-1ZM9.375,27.125A1.875,1.875,0,1,1,11.25,25.25,1.873,1.873,0,0,1,9.375,27.125Z" transform="translate(25.625 8)" fill="#c5934f"/>
    </g>
  </symbol>

</svg>